<svg width="24" height="24" viewBox="0 0 24 24" fill="none" xmlns="http://www.w3.org/2000/svg">
<g clip-path="url(#clip0_9422_174468)">
<path d="M12 24C18.6274 24 24 18.6274 24 12C24 5.37258 18.6274 0 12 0C5.37258 0 0 5.37258 0 12C0 18.6274 5.37258 24 12 24Z" fill="#D80027"/>
<path d="M6.57109 7.30316L7.60703 10.4907H10.9586L8.24922 12.4641L9.28516 15.6516L6.57109 13.6828L3.85703 15.6516L4.89766 12.4641L2.18359 10.4907H5.53516L6.57109 7.30316Z" fill="#FFDA44"/>
<path d="M14.2289 18.586L13.4367 17.611L12.2648 18.0657L12.9445 17.011L12.1523 16.0314L13.3664 16.3548L14.0508 15.3001L14.1164 16.5564L15.3352 16.8798L14.1586 17.3298L14.2289 18.586Z" fill="#FFDA44"/>
<path d="M15.8039 15.7267L16.1789 14.5267L15.1523 13.8001L16.4086 13.7814L16.7789 12.5814L17.1867 13.772L18.443 13.7579L17.4352 14.5079L17.8383 15.6985L16.8117 14.972L15.8039 15.7267Z" fill="#FFDA44"/>
<path d="M17.9266 8.80796L17.3734 9.93765L18.2734 10.8142L17.0312 10.6361L16.4781 11.7611L16.2625 10.5236L15.0156 10.3455L16.1313 9.75952L15.9156 8.51733L16.8156 9.3939L17.9266 8.80796Z" fill="#FFDA44"/>
<path d="M14.2641 5.38605L14.1703 6.63761L15.3375 7.11105L14.1141 7.41105L14.025 8.6673L13.3641 7.59855L12.1406 7.89855L12.9516 6.93761L12.2859 5.87355L13.4531 6.34698L14.2641 5.38605Z" fill="#FFDA44"/>
</g>
<defs>
<clipPath id="clip0_9422_174468">
<rect width="24" height="24" fill="white"/>
</clipPath>
</defs>
</svg>
