<svg width="24" height="24" viewBox="0 0 24 24" fill="none" xmlns="http://www.w3.org/2000/svg">
<g clip-path="url(#clip0_9422_174476)">
<path d="M0 12C0 17.1595 3.2565 21.5581 7.82602 23.2536L8.86955 12L7.82602 0.746399C3.2565 2.44196 0 6.84043 0 12Z" fill="#6DA544"/>
<path d="M24.0021 12C24.0021 5.37262 18.6295 0 12.0021 0C10.5343 0 9.12816 0.264047 7.82812 0.746391V23.2536C9.12816 23.736 10.5343 24 12.0021 24C18.6295 24 24.0021 18.6274 24.0021 12Z" fill="#D80027"/>
<path d="M7.82623 16.1739C10.1314 16.1739 12.0001 14.3052 12.0001 12C12.0001 9.69483 10.1314 7.82611 7.82623 7.82611C5.52106 7.82611 3.65234 9.69483 3.65234 12C3.65234 14.3052 5.52106 16.1739 7.82623 16.1739Z" fill="#FFDA44"/>
<path d="M5.48047 9.91302V12.5217C5.48047 13.8184 6.53159 14.8695 7.8283 14.8695C9.125 14.8695 10.1761 13.8184 10.1761 12.5217V9.91302H5.48047Z" fill="#D80027"/>
<path d="M7.82559 13.3043C7.39406 13.3043 7.04297 12.9532 7.04297 12.5217V11.4783H8.60817V12.5218C8.60817 12.9532 8.25708 13.3043 7.82559 13.3043Z" fill="#F0F0F0"/>
</g>
<defs>
<clipPath id="clip0_9422_174476">
<rect width="24" height="24" fill="white"/>
</clipPath>
</defs>
</svg>
