<svg width="24" height="24" viewBox="0 0 24 24" fill="none" xmlns="http://www.w3.org/2000/svg">
<path d="M12 22C17.5228 22 22 17.5228 22 12C22 6.47715 17.5228 2 12 2C6.47715 2 2 6.47715 2 12C2 17.5228 6.47715 22 12 22Z" fill="#F0F0F0"/>
<path d="M21.378 15.4783C21.78 14.395 22 13.2232 22 12C22 10.7768 21.78 9.60511 21.378 8.52179H2.62199C2.22004 9.60511 2 10.7768 2 12C2 13.2232 2.22004 14.395 2.62199 15.4783L12 16.3478L21.378 15.4783Z" fill="#0052B4"/>
<path d="M11.9991 22C16.2987 22 19.9642 19.2862 21.3771 15.4782H2.62109C4.03402 19.2862 7.69945 22 11.9991 22Z" fill="#D80027"/>
</svg>
