<svg width="24" height="24" viewBox="0 0 24 24" fill="none" xmlns="http://www.w3.org/2000/svg">
<path d="M11.9996 21.9992C17.5222 21.9992 21.9992 17.5222 21.9992 11.9996C21.9992 6.47696 17.5222 2 11.9996 2C6.47696 2 2 6.47696 2 11.9996C2 17.5222 6.47696 21.9992 11.9996 21.9992Z" fill="#F0F0F0"/>
<path d="M11.5703 12.0003H22.0046C22.0046 11.0978 21.8843 10.2234 21.6602 9.39172H11.5703V12.0003Z" fill="#D80027"/>
<path d="M11.5703 6.78328H20.537C19.9248 5.78442 19.1422 4.90153 18.2296 4.17468H11.5703V6.78328Z" fill="#D80027"/>
<path d="M12.0019 21.9997C14.3553 21.9997 16.5184 21.1863 18.2265 19.8259H5.77734C7.48547 21.1863 9.64855 21.9997 12.0019 21.9997Z" fill="#D80027"/>
<path d="M3.47085 17.2174H20.5347C21.0261 16.4155 21.4072 15.539 21.6579 14.6088H2.34766C2.59831 15.539 2.97943 16.4155 3.47085 17.2174Z" fill="#D80027"/>
<path d="M6.63199 3.56157H7.54324L6.69562 4.17737L7.0194 5.17377L6.17182 4.55798L5.32423 5.17377L5.60391 4.31299C4.85761 4.93464 4.2035 5.66297 3.66446 6.4745H3.95644L3.41689 6.86647C3.33283 7.0067 3.25221 7.14916 3.17495 7.29372L3.4326 8.0867L2.95191 7.73745C2.83243 7.99061 2.72313 8.24946 2.6249 8.51371L2.90875 9.38742H3.95644L3.10882 10.0032L3.4326 10.9996L2.58501 10.3838L2.0773 10.7527C2.02648 11.1612 2 11.5773 2 11.9996H11.9996C11.9996 6.477 11.9996 5.82593 11.9996 2C10.0242 2 8.18275 2.57302 6.63199 3.56157ZM7.0194 10.9996L6.17182 10.3838L5.32423 10.9996L5.64801 10.0032L4.80039 9.38742H5.84808L6.17182 8.39102L6.49555 9.38742H7.54324L6.69562 10.0032L7.0194 10.9996ZM6.69562 7.09029L7.0194 8.0867L6.17182 7.4709L5.32423 8.0867L5.64801 7.09029L4.80039 6.4745H5.84808L6.17182 5.4781L6.49555 6.4745H7.54324L6.69562 7.09029ZM10.6062 10.9996L9.75862 10.3838L8.91104 10.9996L9.23481 10.0032L8.38719 9.38742H9.43488L9.75862 8.39102L10.0824 9.38742H11.13L10.2824 10.0032L10.6062 10.9996ZM10.2824 7.09029L10.6062 8.0867L9.75862 7.4709L8.91104 8.0867L9.23481 7.09029L8.38719 6.4745H9.43488L9.75862 5.4781L10.0824 6.4745H11.13L10.2824 7.09029ZM10.2824 4.17737L10.6062 5.17377L9.75862 4.55798L8.91104 5.17377L9.23481 4.17737L8.38719 3.56157H9.43488L9.75862 2.56517L10.0824 3.56157H11.13L10.2824 4.17737Z" fill="#0052B4"/>
</svg>
