<svg width="24" height="24" viewBox="0 0 24 24" fill="none" xmlns="http://www.w3.org/2000/svg">
<g clip-path="url(#clip0_9422_174482)">
<path d="M12 24C18.6274 24 24 18.6274 24 12C24 5.37258 18.6274 0 12 0C5.37258 0 0 5.37258 0 12C0 18.6274 5.37258 24 12 24Z" fill="#F0F0F0"/>
<path d="M16.172 12C16.172 13.0435 14.3033 15.6522 11.9981 15.6522C9.69294 15.6522 7.82422 13.0435 7.82422 12C7.82422 9.69478 9.69294 7.82611 11.9981 7.82611C14.3033 7.82611 16.172 9.69478 16.172 12Z" fill="#D80027"/>
<path d="M16.172 12C16.172 14.3052 14.3033 16.1739 11.9981 16.1739C9.69294 16.1739 7.82422 14.3052 7.82422 12" fill="#0052B4"/>
<path d="M16.4219 15.6895L17.5285 14.5829L18.2662 15.3206L17.1596 16.4272L16.4219 15.6895Z" fill="black"/>
<path d="M14.5781 17.5338L15.6847 16.4272L16.4225 17.165L15.3159 18.2716L14.5781 17.5338Z" fill="black"/>
<path d="M18.6367 17.9025L19.7433 16.7959L20.4811 17.5337L19.3745 18.6403L18.6367 17.9025Z" fill="black"/>
<path d="M16.793 19.7473L17.8996 18.6407L18.6373 19.3784L17.5307 20.485L16.793 19.7473Z" fill="black"/>
<path d="M17.5312 16.7961L18.6378 15.6895L19.3756 16.4272L18.269 17.5338L17.5312 16.7961Z" fill="black"/>
<path d="M15.6875 18.6404L16.7941 17.5338L17.5318 18.2716L16.4252 19.3782L15.6875 18.6404Z" fill="black"/>
<path d="M18.6406 8.31256L15.6897 5.36162L16.4274 4.62388L19.3784 7.57482L18.6406 8.31256Z" fill="black"/>
<path d="M15.6914 7.57513L14.5848 6.46854L15.3225 5.73083L16.4291 6.83742L15.6914 7.57513Z" fill="black"/>
<path d="M17.5352 9.41992L16.4286 8.31332L17.1663 7.57561L18.2729 8.68221L17.5352 9.41992Z" fill="black"/>
<path d="M17.9023 5.36157L16.7957 4.25497L17.5335 3.51723L18.6401 4.62383L17.9023 5.36157Z" fill="black"/>
<path d="M19.75 7.2066L18.6434 6.10001L19.3811 5.36226L20.4877 6.46886L19.75 7.2066Z" fill="black"/>
<path d="M4.25391 16.794L7.20485 19.7449L6.4671 20.4827L3.51616 17.5318L4.25391 16.794Z" fill="black"/>
<path d="M7.20312 17.5311L8.30972 18.6377L7.57201 19.3754L6.46542 18.2688L7.20312 17.5311Z" fill="black"/>
<path d="M5.35938 15.6871L6.46597 16.7937L5.72823 17.5315L4.62163 16.4249L5.35938 15.6871Z" fill="black"/>
<path d="M6.46875 14.5803L9.41969 17.5312L8.68195 18.2689L5.73101 15.318L6.46875 14.5803Z" fill="black"/>
<path d="M7.20312 4.25269L4.25218 7.20363L3.51444 6.46588L6.46538 3.51494L7.20312 4.25269Z" fill="black"/>
<path d="M8.3125 5.35913L5.36156 8.31007L4.62382 7.57233L7.57476 4.62139L8.3125 5.35913Z" fill="black"/>
<path d="M9.41797 6.46643L6.46703 9.41737L5.72932 8.67966L8.68026 5.72872L9.41797 6.46643Z" fill="black"/>
</g>
<defs>
<clipPath id="clip0_9422_174482">
<rect width="24" height="24" fill="white"/>
</clipPath>
</defs>
</svg>
