<svg width="152" height="34" viewBox="0 0 152 34" fill="none" xmlns="http://www.w3.org/2000/svg">
<mask id="mask0_9069_179658" style="mask-type:alpha" maskUnits="userSpaceOnUse" x="1" y="2" width="30" height="30">
<circle cx="16.0046" cy="17" r="14.6687" fill="white"/>
</mask>
<g mask="url(#mask0_9069_179658)">
<circle cx="16.0046" cy="17" r="14.6687" fill="#0060D1"/>
<path d="M21.6263 28.4199C21.265 29.0409 20.106 28.9883 19.6342 28.9703C13.8448 28.7489 17.5296 30.1362 6.08306 28.7868C6.08306 28.7868 0.279808 28.1027 0.31658 27.6859C0.334381 27.4841 2.35579 27.8044 4.16963 26.585C4.33747 26.4723 4.80836 26.1414 5.29674 25.5891C6.13215 24.6443 6.45491 23.6893 6.55487 23.3611C6.62405 23.134 6.67363 22.9209 6.70898 22.7125C6.72044 22.7117 6.73153 22.7053 6.73652 22.6918C6.77193 22.5961 6.79639 22.496 6.80938 22.3943C6.82312 22.3926 6.83568 22.3828 6.83568 22.365C6.83581 22.2728 6.83938 22.1808 6.8448 22.089C6.8488 22.0529 6.85219 22.0168 6.85496 21.9807C6.86975 21.8984 6.88046 21.8155 6.88558 21.7321C6.8982 21.7289 6.90923 21.7188 6.90923 21.7031C6.90929 21.6182 6.91095 21.5334 6.91378 21.4486C6.92272 21.3469 6.92974 21.245 6.9359 21.1436C6.94809 21.1403 6.95832 21.1304 6.95826 21.1148C6.95807 21.0516 6.95456 20.9888 6.94803 20.9262C6.95154 20.8583 6.95487 20.7904 6.95826 20.7225C6.95967 20.6941 6.92925 20.6863 6.91058 20.6985C6.90258 20.6627 6.89358 20.6271 6.8836 20.5918C6.87966 20.5778 6.87012 20.5711 6.85977 20.57C6.85958 20.569 6.85934 20.5682 6.85909 20.5673C6.85521 20.5533 6.84277 20.5464 6.8302 20.5458C6.83624 20.4578 6.83568 20.3692 6.83568 20.2813C6.83568 20.2478 6.78049 20.2379 6.7752 20.2731C6.77415 20.2799 6.77323 20.2867 6.77224 20.2935C6.74896 19.8887 6.69396 19.4781 6.55487 19.01C6.50572 18.8446 6.43286 18.6276 5.89957 17.5422C5.11184 15.939 5.0824 16.0291 4.87735 15.4977C4.84507 15.4141 4.81477 15.3315 4.78637 15.2502C4.44003 14.2584 4.37153 13.4501 4.35312 13.165C4.28912 12.1748 4.43664 11.4234 4.48419 11.1991C4.56328 10.8258 4.76672 9.9042 5.34916 9.02358C6.40988 7.41966 8.11118 6.88422 8.80899 6.66457C10.4476 6.14884 11.7921 6.34533 12.9791 6.51878C13.873 6.64942 15.1738 6.85342 16.5156 7.6499C16.708 7.76403 16.9012 7.89036 17.0941 8.03043C17.6283 8.41817 18.0217 8.81003 18.2843 9.10076L18.2871 9.1116L19.2935 13.0339C19.8844 18.1878 19.5805 22.0502 18.8479 22.9942C18.5986 23.3154 18.2997 23.5812 18.1002 23.7425C17.9669 23.8503 17.8781 23.9115 17.8781 23.9115C17.3824 24.253 16.8498 24.6198 16.2268 24.5406C15.9439 24.5046 15.6442 24.377 15.5715 24.4882C15.5363 24.542 15.578 24.6158 15.6501 24.8027C15.7755 25.1275 15.7709 25.2186 15.8336 25.3793C15.9719 25.7337 16.3062 26.0892 16.5794 26.2934C16.5931 26.3037 16.6066 26.3135 16.6199 26.323C17.0008 26.5928 17.1781 26.501 18.8217 26.6899C20.8202 26.9196 20.1169 27.0045 20.8399 27.0307C21.0503 27.0383 21.3019 27.0381 21.4952 27.2142C21.578 27.2895 21.6404 27.3882 21.6832 27.4992C21.796 27.7915 21.7728 28.1679 21.6263 28.4199Z" fill="#F6B79F"/>
<path opacity="0.2" d="M21.6832 27.4982C21.4057 27.4844 20.9066 27.4555 20.0063 27.4081C19.4661 27.3797 18.9282 27.3159 18.3881 27.2853C17.6698 27.2445 17.4421 27.2507 17.1796 27.0804C16.901 26.8997 16.6663 26.5742 16.5781 26.2921C16.5918 26.3024 16.6054 26.3123 16.6187 26.3217C16.9996 26.5915 17.177 26.4998 18.821 26.6888C20.8199 26.9184 20.1165 27.0034 20.8397 27.0296C21.0501 27.0372 21.3018 27.037 21.4952 27.2131C21.5779 27.2885 21.6403 27.3872 21.6832 27.4982Z" fill="white"/>
<path opacity="0.55" d="M16.5182 7.64984C15.313 7.65704 11.9711 6.22479 8.86631 7.80432C6.83856 8.83584 5.36337 10.9224 4.90689 12.9688C4.72063 13.8037 4.71644 14.5765 4.78894 15.2501C4.44259 14.2584 4.3741 13.4501 4.35568 13.1649C4.29168 12.1747 4.4392 11.4234 4.48675 11.199C4.56584 10.8257 4.76929 9.90414 5.35173 9.02352C6.41245 7.4196 8.11375 6.88416 8.81155 6.66451C10.4502 6.14878 11.7946 6.34527 12.9816 6.51872C13.8755 6.64936 15.1764 6.85336 16.5182 7.64984Z" fill="white"/>
<path opacity="0.45" d="M9.83262 13.6949C10.2307 13.5284 10.7282 13.3203 11.3389 13.3423C12.1771 13.3726 12.5587 13.8122 12.749 13.6308C12.965 13.425 12.7367 12.6082 12.2363 12.3489C11.8996 12.1744 11.6988 12.3865 11.2427 12.1886C10.8267 12.0081 10.797 11.7462 10.5056 11.7079C10.3811 11.6916 10.1149 11.7038 9.6083 12.2527C8.88198 13.0397 8.36132 14.1717 8.58274 14.3359C8.71933 14.4371 8.97896 14.052 9.83262 13.6949Z" fill="white"/>
<path opacity="0.3" d="M5.04976 27.3653C5.06066 27.347 5.09818 27.3555 5.18114 27.3558C5.18114 27.3558 5.1849 27.3558 5.37948 27.341C5.58064 27.3257 8.16004 26.9988 9.86547 27.2792C9.99876 27.3011 10.2935 27.3542 10.5534 27.5781C10.7582 27.7544 11.0295 28.1126 10.9621 28.3546C10.7022 29.2882 5.56703 27.8909 5.18792 27.5525C5.16926 27.5359 5.02482 27.407 5.04976 27.3653Z" fill="white"/>
<path opacity="0.2" d="M15.1375 27.7371C14.3617 27.5837 13.9673 27.5108 13.651 27.6988C13.3098 27.9016 13.0658 28.3701 13.2262 28.6167C13.6219 29.2248 16.5101 28.5334 16.4965 28.1578C16.491 28.0048 16.0043 27.9085 15.1374 27.7371H15.1375Z" fill="white"/>
<path opacity="0.15" d="M8.32031 19.1497C8.50657 19.4567 8.78067 19.8727 9.15516 20.331C9.54734 20.8109 10.6958 22.1279 12.6542 23.1227C14.904 24.2655 16.7946 24.2576 16.7665 24.4843C16.7467 24.6435 15.8096 24.6891 15.0979 24.6024C14.9808 24.5881 14.5091 24.5262 13.7801 24.255C13.5953 24.1862 13.0461 23.9745 11.9878 23.34C11.3263 22.9434 10.2395 22.2847 9.52529 21.5057C9.14211 21.0878 8.87017 20.6401 8.87017 20.6401C8.73614 20.4194 8.64085 20.2262 8.57827 20.089" fill="#8B3826"/>
<path d="M18.1648 9.19165C17.9632 8.968 17.6698 8.67136 17.2797 8.36683C16.3642 7.65215 15.5072 7.35564 14.8458 7.13322C14.4158 6.98859 13.1682 6.5995 11.4784 6.56642C10.5564 6.54838 9.75756 6.52706 8.74445 6.83313C8.21393 6.9934 6.96369 7.38853 5.8771 8.56689C5.54942 8.92223 4.93458 9.67646 4.57641 10.8079C4.10004 12.3128 4.36169 13.5881 4.48642 14.16C4.71678 15.2163 5.16845 16.1009 5.60485 16.9556C5.87451 17.4837 6.14424 17.9387 6.46065 18.7498C6.6251 19.1713 6.79905 19.6171 6.91072 20.1363C7.18968 21.433 6.93696 22.5216 6.84401 22.9036C6.71706 23.4253 6.26866 25.1557 4.61016 26.4377C2.79934 27.8376 0.803927 27.7306 0.316406 27.6908" stroke="#8B3826" stroke-width="0.33877" stroke-miterlimit="10"/>
<g opacity="0.55">
<path d="M13.0742 22.7211C13.1314 22.7944 13.186 22.8708 13.2449 22.9406C13.3001 23.0071 13.3579 23.0683 13.4206 23.1269C13.5325 23.2319 13.659 23.3207 13.7874 23.4064C13.8073 23.4196 13.8276 23.4331 13.8482 23.4481C13.8232 23.4533 13.7983 23.4553 13.7733 23.4559C13.4935 23.4596 13.2282 23.2697 13.1205 23.0147C13.0821 22.9221 13.0611 22.8211 13.0743 22.721L13.0742 22.7211Z" fill="#8B3826"/>
</g>
<g opacity="0.65">
<path d="M9.44531 15.8498C9.54683 15.8556 9.65439 15.8676 9.75431 15.8717C9.83851 15.8753 9.92006 15.8763 10.0035 15.8722C10.1734 15.8654 10.3394 15.8375 10.5072 15.8063C10.5474 15.7989 10.5855 15.7913 10.6273 15.7853C10.6121 15.8094 10.5944 15.8311 10.5755 15.8515C10.3623 16.0782 10.0068 16.1442 9.71856 16.0371C9.61421 15.9974 9.5162 15.9371 9.44531 15.8498Z" fill="#8B3826"/>
</g>
<path d="M11.4342 15.2641C11.2612 15.4271 11.3205 15.713 11.3296 15.7571C11.3477 15.8446 11.373 15.9666 11.4873 16.0559C11.6304 16.1678 11.8125 16.1498 12.0798 16.1645C12.5052 16.1879 12.8381 16.2771 13.0752 16.3407C13.57 16.4732 13.7444 16.6175 13.9597 16.5379C14.1082 16.4831 14.1677 16.362 14.1794 16.3384C14.2467 16.2015 14.2212 16.0233 14.1028 15.9101C13.9618 15.7754 13.7929 15.8319 13.4783 15.7103C13.2489 15.6217 13.1881 15.5334 13.0159 15.426C12.5407 15.1297 11.7162 14.9986 11.4343 15.2642L11.4342 15.2641Z" fill="#C66E60" stroke="#515151" stroke-width="0.277175" stroke-miterlimit="10"/>
<path d="M13.6224 15.8053C13.6648 15.4649 13.2656 15.135 12.7309 15.0685C12.1962 15.002 11.7284 15.2241 11.686 15.5644C11.6437 15.9048 12.0428 16.2347 12.5776 16.3012C13.1123 16.3677 13.5801 16.1457 13.6224 15.8053Z" fill="black"/>
<path d="M11.9726 16.0537C12.0999 16.0537 12.2031 15.9505 12.2031 15.8233C12.2031 15.696 12.0999 15.5928 11.9726 15.5928C11.8454 15.5928 11.7422 15.696 11.7422 15.8233C11.7422 15.9505 11.8454 16.0537 11.9726 16.0537Z" fill="white"/>
<path d="M10.8907 15.4809C11.1865 15.1033 11.6328 14.852 12.1221 14.9026C12.2144 14.9113 12.3113 14.9285 12.4015 14.9496C12.8418 15.0547 13.2558 15.22 13.6671 15.4019C13.7889 15.4563 13.9092 15.5136 14.0289 15.5725C14.0549 15.5857 14.1112 15.6139 14.1387 15.6248C14.2316 15.6631 14.3376 15.6841 14.4159 15.6066C14.5029 15.5192 14.5367 15.3858 14.5636 15.2661C14.5969 15.4286 14.5955 15.6236 14.4718 15.7522C14.37 15.8568 14.2112 15.8679 14.0773 15.8393C14.0403 15.8319 14.0048 15.822 13.9697 15.8112C13.9167 15.7953 13.8634 15.779 13.8109 15.7623C13.4777 15.6578 13.1409 15.5388 12.8112 15.4237C12.5808 15.3443 12.3584 15.2633 12.1249 15.2074C12.0721 15.196 12.0169 15.1855 11.964 15.1798C11.5845 15.1367 11.22 15.299 10.8906 15.4809H10.8907Z" fill="#8B3826"/>
<path d="M10.9492 16.5365C11.2154 16.1924 11.6606 15.9949 12.0955 16.0292C12.1576 16.0334 12.2211 16.0415 12.2823 16.0523C12.5536 16.0987 12.9159 16.2242 13.182 16.3022C13.6199 16.437 14.072 16.5428 14.5135 16.6674C13.8906 16.7754 13.2456 16.6783 12.6474 16.4933C12.4441 16.4327 12.2161 16.3541 12.0085 16.3239C11.6436 16.2677 11.2762 16.3757 10.9492 16.5365Z" fill="#8B3826"/>
<g opacity="0.55">
<path d="M10.0474 19.1499C9.89297 18.9091 9.81941 18.6118 9.83906 18.325C9.84824 18.1796 9.88231 18.0361 9.92414 17.8973C9.94361 17.8296 9.96468 17.7609 9.98963 17.6918C10.0631 17.4823 10.1826 17.2847 10.3653 17.1505C10.5007 17.0485 10.6689 16.9975 10.8309 16.9699C11.5401 16.8588 12.262 16.9594 12.9606 17.0828C13.1656 17.1182 13.3652 17.1583 13.5698 17.1716L13.6192 17.1735L13.6316 17.174C13.6357 17.1741 13.6397 17.174 13.6438 17.1739L13.6683 17.1736C13.7497 17.1734 13.831 17.1647 13.9105 17.1477C13.9304 17.1427 13.9504 17.1381 13.9704 17.1334C13.9744 17.1324 13.9782 17.1311 13.9822 17.13L14.006 17.1228L14.0299 17.1157L14.0418 17.1121L14.0541 17.1081C14.1475 17.0761 14.2411 17.0427 14.3214 16.9854C14.3548 16.9594 14.383 16.9343 14.3873 16.8956C14.3882 16.8707 14.3759 16.845 14.3591 16.8243C14.3285 16.7861 14.2885 16.7571 14.2455 16.7316C14.1867 16.6968 14.1217 16.6703 14.0551 16.6477C14.1873 16.6617 14.3724 16.7059 14.4493 16.8247C14.5625 17.0205 14.2515 17.1795 14.1095 17.2459C14.0819 17.2587 14.0488 17.2725 14.0208 17.2844C13.9954 17.2934 13.9537 17.3094 13.9281 17.3163C13.8473 17.3405 13.7635 17.3579 13.6796 17.3655C13.6669 17.3666 13.6491 17.3686 13.6376 17.3695L13.6237 17.3701L13.568 17.3728C13.3521 17.3783 13.1352 17.35 12.9247 17.3251C12.8038 17.3105 12.6284 17.2883 12.5093 17.2747C11.9632 17.2112 11.4174 17.1641 10.8719 17.2293C10.6734 17.2572 10.5257 17.3045 10.3835 17.4498C10.2455 17.5892 10.1684 17.7744 10.0958 17.9566C9.92309 18.3527 9.89673 18.7394 10.0477 19.15L10.0474 19.1499Z" fill="#8B3826"/>
</g>
<path d="M8.27092 17.8878C8.26199 18.3718 8.31706 18.8517 8.44314 19.3171C8.63384 20.0214 8.98413 20.6861 9.4653 21.2275C9.73866 21.5207 10.0583 21.7675 10.376 22.0122C10.7581 22.3008 11.1473 22.5904 11.5475 22.8526C11.8222 23.0337 12.1093 23.2082 12.3968 23.3679C12.6813 23.5275 12.9909 23.6819 13.2826 23.8285C13.5604 23.9676 13.8427 24.1033 14.1326 24.2131C14.3522 24.2949 14.5771 24.3617 14.8068 24.4066C14.9085 24.4274 15.0266 24.446 15.1294 24.4605C15.3449 24.4914 15.562 24.5119 15.7796 24.5127C16.4711 24.5187 17.1593 24.3199 17.7504 23.9603C18.068 23.7689 18.3573 23.5373 18.6224 23.2742C18.3928 23.5688 18.1179 23.8348 17.8135 24.0555C17.0101 24.6393 16.077 24.8532 15.0956 24.7387C14.966 24.7257 14.8254 24.7071 14.6973 24.6845C14.5286 24.6539 14.355 24.6122 14.1911 24.5613C13.6118 24.3803 13.0703 24.0937 12.5318 23.8249C12.4039 23.7577 12.2587 23.6795 12.1333 23.6086C11.8563 23.4513 11.5789 23.2788 11.3149 23.1006C10.9572 22.8582 10.6117 22.5955 10.2732 22.3277C9.94679 22.0677 9.62286 21.8015 9.33867 21.4936C9.28631 21.436 9.23531 21.3755 9.18831 21.314C8.4445 20.3546 8.09618 19.0898 8.27099 17.8878H8.27092Z" fill="#8B3826"/>
<path d="M15.5469 24.6326C15.5793 24.8814 15.6637 25.2462 15.8968 25.6201C15.9972 25.7811 16.3305 26.2997 16.9775 26.5524C17.175 26.6295 17.3337 26.6553 17.4964 26.6818C18.0187 26.7666 18.2769 26.6826 18.6974 26.6704C19.111 26.6584 19.1276 26.732 20.4733 26.9847C20.883 27.0617 21.2178 27.118 21.4319 27.1529" stroke="#8B3826" stroke-width="0.277175" stroke-miterlimit="10"/>
<g opacity="0.75">
<path d="M9.60938 26.9069C9.96954 26.7709 10.3942 26.7248 10.7508 26.8983C10.8726 26.957 10.981 27.0493 11.0733 27.145C11.23 27.3104 11.3649 27.4781 11.5048 27.6545C11.5606 27.7264 11.6186 27.8073 11.6729 27.8754C11.7026 27.9119 11.7339 27.9471 11.7714 27.975C11.8555 28.0336 11.9624 28.0651 12.0639 28.0772C12.1776 28.0893 12.3005 28.075 12.3832 27.9935C12.431 27.9437 12.4462 27.8767 12.4609 27.8075C12.4801 27.7095 12.4971 27.6059 12.5382 27.5112C12.5799 27.4122 12.6475 27.3244 12.7308 27.2566C12.744 27.2467 12.7585 27.236 12.7712 27.2268C12.8024 27.2063 12.8363 27.1872 12.8702 27.1717L12.8957 27.1612L12.9084 27.156L12.9149 27.1535L12.9213 27.1513L12.9468 27.1428C13.0782 27.1014 13.2064 27.09 13.3406 27.081C13.4486 27.0743 13.5634 27.071 13.6716 27.0684C13.9403 27.0632 14.2111 27.0847 14.4738 27.1415C14.1931 27.1492 13.914 27.1722 13.6379 27.2175C13.5164 27.2372 13.3914 27.2553 13.2716 27.2786C13.1886 27.2944 13.0964 27.3166 13.0217 27.3479C12.9259 27.3874 12.8509 27.4506 12.8007 27.5384C12.7452 27.6386 12.7394 27.7365 12.7198 27.8549C12.7079 27.9273 12.6912 28.0022 12.6557 28.0721C12.5411 28.3008 12.2723 28.3819 12.0336 28.3528C11.8812 28.3344 11.731 28.2855 11.6069 28.1933C11.551 28.1499 11.5032 28.0972 11.4611 28.0413C11.383 27.9366 11.3184 27.8366 11.2432 27.7336C11.0994 27.5427 10.9609 27.3282 10.7943 27.1613C10.7539 27.1226 10.7097 27.087 10.6625 27.057C10.6026 27.0182 10.5359 26.9883 10.4691 26.9632C10.4134 26.9441 10.356 26.9275 10.2982 26.9163C10.0716 26.8691 9.83955 26.8803 9.60938 26.9071V26.9069Z" fill="#8B3826"/>
</g>
<g opacity="0.35">
<path d="M6.49517 25.6582C6.67205 25.6669 6.86131 25.7301 7.03598 25.732C7.11903 25.7369 7.19783 25.749 7.26338 25.6825C7.36121 25.5822 7.36855 25.4169 7.38013 25.282C7.38512 25.2205 7.39227 25.157 7.40884 25.0952C7.42473 25.0332 7.45073 24.974 7.48043 24.9167C7.51641 24.8453 7.55978 24.7729 7.61079 24.7114C7.78915 24.4935 8.08685 24.3623 8.36545 24.3645C8.38141 24.3649 8.39736 24.3656 8.41357 24.3673L8.42607 24.3988C8.38436 24.4479 8.34161 24.4894 8.30051 24.5308C8.20336 24.6275 8.1057 24.7195 8.012 24.8175C7.9725 24.8581 7.93301 24.8986 7.89303 24.9387C7.85329 24.9777 7.81263 25.0187 7.7748 25.0599C7.75065 25.0884 7.72483 25.1188 7.70315 25.1491C7.69138 25.1648 7.66772 25.196 7.65571 25.2114C7.58837 25.2972 7.51321 25.3898 7.46965 25.4932C7.43207 25.5771 7.41173 25.6632 7.38321 25.752C7.33146 25.9195 7.19764 26.0374 7.01651 26.0367C6.85294 26.0328 6.70138 25.9523 6.59005 25.8409C6.54489 25.7949 6.50577 25.7453 6.47656 25.6865L6.49517 25.6582Z" fill="#8B3826"/>
</g>
<g opacity="0.45">
<path d="M8.11328 20.6857C8.73572 21.521 8.74047 22.8994 8.11328 23.7332C8.12548 23.6196 8.14279 23.5018 8.15739 23.3893C8.19615 23.0913 8.22701 22.7899 8.23798 22.4904C8.25147 22.1469 8.23884 21.8012 8.20588 21.4591C8.18771 21.2694 8.16362 21.0748 8.1378 20.8841C8.12998 20.8205 8.1195 20.7496 8.11334 20.6857H8.11328Z" fill="#8B3826"/>
</g>
<path opacity="0.35" d="M9.08695 20.9657C8.98618 21.0205 9.35883 22.0049 9.78149 22.7735C10.1732 23.4858 11.1808 25.3181 13.1684 26.0107C14.6338 26.5213 16.189 26.258 16.223 26.045C16.2317 25.9911 16.1384 25.9669 15.9684 25.7348C15.9138 25.6602 15.7684 25.4588 15.679 25.1862C15.5682 24.8481 15.655 24.7406 15.5409 24.629C15.4063 24.4972 15.204 24.5668 14.9172 24.5677C14.6524 24.5685 14.4032 24.476 13.9049 24.2909C13.3403 24.0811 12.903 23.8459 12.5026 23.6174C11.0131 22.7674 10.2683 22.3424 9.63182 21.5933C9.33062 21.2387 9.1459 20.9337 9.08701 20.9658L9.08695 20.9657Z" fill="#8B3826"/>
<path d="M13.8906 24.7646C14.017 24.7887 14.1263 24.8761 14.1912 24.9858C14.2218 25.037 14.2424 25.0944 14.2542 25.1527C14.2571 25.1693 14.2594 25.186 14.2619 25.2027C14.262 25.206 14.2627 25.2159 14.2629 25.2194C14.2788 25.4279 14.176 25.6406 14.0021 25.7569C13.9673 25.7792 13.9301 25.7985 13.8906 25.8111C13.927 25.7244 13.9614 25.652 13.9897 25.5661C14.0232 25.4677 14.0458 25.365 14.0493 25.2611C14.0536 25.0669 13.9888 24.9274 13.8907 24.7646H13.8906Z" fill="#8B3826"/>
<g opacity="0.45">
<path d="M14.9036 9.58453C15.059 10.0865 15.2872 10.5472 15.5462 11.0019C15.6583 11.2103 15.7526 11.4386 15.8097 11.6719C15.8484 11.8341 15.885 12.003 15.8672 12.174C15.8542 12.2999 15.8071 12.4249 15.7291 12.5259C15.6866 12.5821 15.6276 12.6338 15.5786 12.677C15.5002 12.7446 15.4301 12.8153 15.3684 12.8974C15.3052 12.9801 15.2524 13.0697 15.2068 13.1635C15.1787 13.2209 15.1533 13.2813 15.1299 13.3407C15.1217 13.361 15.1147 13.3815 15.1063 13.402L15.0851 13.3982C15.0853 13.2208 15.1225 13.0403 15.1995 12.8721C15.238 12.7881 15.2874 12.7081 15.3453 12.6343C15.398 12.5659 15.4668 12.5016 15.5194 12.439C15.59 12.3547 15.6308 12.2544 15.6475 12.1463C15.6689 12.0033 15.6519 11.8532 15.6293 11.7101C15.5647 11.3113 15.3587 10.9594 15.2001 10.5896C15.0631 10.2661 14.9568 9.93096 14.8828 9.59014L14.9036 9.58453Z" fill="#8B3826"/>
</g>
<g opacity="0.55">
<path d="M13.123 12.4918C13.1201 12.5145 13.1163 12.5438 13.1137 12.566C13.1123 12.5793 13.1098 12.6087 13.1086 12.6213C13.1082 12.6321 13.106 12.6648 13.1054 12.6762L13.1049 12.7126C13.1046 12.7919 13.1121 12.8757 13.1425 12.947C13.1588 12.9856 13.1838 13.0208 13.2181 13.0453C13.2362 13.0572 13.2525 13.0642 13.2764 13.0721C13.3148 13.0847 13.3671 13.0985 13.4179 13.116C13.469 13.1339 13.5197 13.1551 13.5685 13.1787C13.6168 13.2024 13.666 13.2286 13.7118 13.2571C13.7554 13.2834 13.8012 13.3196 13.8426 13.3438C13.9193 13.3885 14.0084 13.4281 14.087 13.473C14.2114 13.5444 14.3261 13.6225 14.4476 13.704C14.5314 13.7618 14.6177 13.8208 14.6965 13.8879L14.6883 13.9208C14.5818 13.9439 14.4718 13.9422 14.3646 13.9288C14.1535 13.8997 13.9456 13.8243 13.7795 13.6884C13.7367 13.6537 13.6962 13.6179 13.6561 13.5788C13.622 13.5461 13.598 13.5172 13.5658 13.488C13.5285 13.4546 13.4858 13.4234 13.4445 13.3949C13.3872 13.3549 13.3271 13.3206 13.2645 13.2892C13.2037 13.2591 13.1424 13.2287 13.0945 13.1766C13.0622 13.141 13.0363 13.0984 13.0199 13.0532C12.9878 12.967 12.9866 12.8667 13.001 12.7793C13.0177 12.6738 13.0505 12.5761 13.0903 12.4827L13.1228 12.4918H13.123Z" fill="#8B3826"/>
</g>
<g opacity="0.55">
<path d="M15.2273 15.0577C15.2202 14.9385 15.2669 14.8164 15.3529 14.7323C15.3587 14.7271 15.3666 14.7184 15.3728 14.7138C15.3934 14.6966 15.4167 14.6789 15.4386 14.6635C15.4695 14.6422 15.5038 14.6224 15.5407 14.6143C15.596 14.6029 15.6552 14.6126 15.7054 14.6373C15.74 14.6551 15.7704 14.6785 15.7913 14.713L15.7852 14.7304C15.7578 14.7426 15.7192 14.7565 15.691 14.7671C15.6393 14.7849 15.5974 14.8037 15.5449 14.8074C15.5395 14.8079 15.5316 14.8081 15.5263 14.8091C15.508 14.8113 15.4879 14.8151 15.471 14.8226C15.4678 14.824 15.4519 14.8311 15.449 14.8324C15.4412 14.8368 15.4313 14.8423 15.4234 14.8464C15.4079 14.8563 15.3931 14.8664 15.3786 14.8777C15.3662 14.8881 15.3519 14.9009 15.3406 14.9126C15.3022 14.9532 15.2689 15.0036 15.2455 15.0602L15.2272 15.0576L15.2273 15.0577Z" fill="#8B3826"/>
</g>
<g opacity="0.35">
<path d="M14.8381 15.4508C14.9869 15.5763 15.1868 15.6399 15.3741 15.5695C15.4587 15.5376 15.5206 15.472 15.5907 15.4176C15.6488 15.3709 15.7081 15.3129 15.7609 15.257C15.7757 15.242 15.7881 15.2272 15.8043 15.2123L15.822 15.2177C15.8281 15.2541 15.8272 15.2904 15.8223 15.3266C15.8023 15.4507 15.7304 15.568 15.6234 15.6357C15.546 15.6822 15.4571 15.7063 15.3692 15.7196C15.2684 15.7323 15.1632 15.717 15.0715 15.6736C14.9712 15.6263 14.8858 15.5533 14.8242 15.4631L14.8381 15.4508V15.4508Z" fill="#8B3826"/>
</g>
<path d="M15.5383 18.5949C15.427 18.7763 15.2633 18.924 15.0754 19.0241C15.0359 19.0445 14.9941 19.0637 14.9546 19.0819C14.9267 19.0949 14.8924 19.1136 14.8728 19.1326C14.8284 19.1745 14.8016 19.2306 14.7842 19.2894C14.7407 19.4451 14.7611 19.6234 14.8351 19.7651C14.9837 20.046 15.3341 20.1511 15.6396 20.1133C15.4734 20.2306 15.2524 20.2625 15.0558 20.2146C14.7213 20.1324 14.5045 19.8516 14.4859 19.511C14.4698 19.2658 14.5786 18.9705 14.8296 18.8858C14.8711 18.8707 14.9181 18.8601 14.9604 18.8488C15.1654 18.7962 15.3542 18.7004 15.5383 18.5949Z" fill="#8B3826"/>
<path d="M15.9492 19.9015C16.0167 19.846 16.0894 19.7903 16.1593 19.7379C16.2287 19.6861 16.3041 19.6311 16.3768 19.5845C16.4483 19.5386 16.5104 19.4775 16.5978 19.4601C16.6459 19.4502 16.6982 19.4524 16.7419 19.4815C16.8043 19.5232 16.8185 19.6012 16.7908 19.6677C16.7691 19.7195 16.7366 19.7574 16.6918 19.7894L16.6716 19.782C16.6674 19.769 16.6647 19.7567 16.662 19.7448C16.6523 19.7066 16.6492 19.6671 16.6314 19.6323C16.6285 19.6279 16.6232 19.6232 16.622 19.6301C16.622 19.6411 16.6289 19.6496 16.6376 19.6573C16.6452 19.6639 16.6556 19.6669 16.6617 19.6702C16.6623 19.6705 16.6619 19.671 16.662 19.6712C16.6598 19.6733 16.6575 19.6739 16.6538 19.6754C16.6119 19.6925 16.5627 19.7035 16.5173 19.7168C16.4809 19.7269 16.4306 19.7475 16.395 19.7615C16.3382 19.7837 16.2681 19.8113 16.2106 19.8325C16.129 19.8627 16.0428 19.8937 15.9597 19.9203L15.9492 19.9015Z" fill="#4C130A"/>
<g opacity="0.55">
<path d="M15.7539 23.2012C15.9229 23.0637 16.1427 22.9936 16.3596 22.9941C16.5818 22.9923 16.7775 23.08 16.9693 23.1652C17.1446 23.243 17.3173 23.2673 17.5074 23.2571C17.5478 23.2552 17.5888 23.2514 17.632 23.2481C17.6021 23.2794 17.5684 23.3065 17.5323 23.3303C17.3643 23.4427 17.146 23.4771 16.9482 23.4304C16.8471 23.4087 16.7477 23.368 16.6513 23.3314C16.5115 23.2768 16.3765 23.2378 16.2293 23.22C16.1467 23.2093 16.058 23.2044 15.9706 23.2028C15.8986 23.2009 15.8266 23.2031 15.754 23.2011L15.7539 23.2012Z" fill="#8B3826"/>
</g>
<path d="M11.6328 16.1367C11.6368 16.1205 11.6756 15.9732 11.8142 15.9172C11.95 15.8623 12.1105 15.9237 12.1648 16.0227C12.2031 16.0926 12.1586 16.1265 12.1648 16.3201C12.1676 16.4076 12.171 16.5134 12.2188 16.6284C12.2673 16.7453 12.3051 16.7355 12.3483 16.8487C12.3838 16.9417 12.3656 16.9675 12.3915 17.1351C12.4261 17.3593 12.4658 17.3594 12.4562 17.4544C12.4406 17.6103 12.3333 17.6149 12.2727 17.7848C12.2416 17.8722 12.2594 17.9005 12.3051 18.3134C12.3429 18.6548 12.3363 18.6864 12.3807 18.7539C12.4674 18.8859 12.5638 18.874 12.6505 19.0183C12.7094 19.1162 12.7018 19.183 12.7261 19.3376C12.7937 19.7693 12.9355 19.7759 12.906 19.9828C12.8801 20.1645 12.7721 20.151 12.5966 20.516C12.5275 20.6597 12.4907 20.7733 12.4563 20.8794C12.3421 21.2315 12.3113 21.5137 12.3052 21.5732C12.283 21.7887 12.3124 21.736 12.3052 22.256C12.3012 22.5376 12.2898 22.7524 12.2728 22.9498C12.2425 23.3007 12.2303 23.1799 12.2188 23.3793C12.2104 23.5248 12.2168 23.5911 12.1649 23.6436C12.0938 23.7155 11.9587 23.7156 11.8627 23.6656C11.8538 23.661 11.7278 23.5929 11.7116 23.4674C11.6969 23.3535 11.7832 23.2749 11.8519 23.17C11.9393 23.0366 11.9606 22.8829 12.003 22.5753C12.0357 22.3384 12.0289 22.1388 12.0138 21.7494C11.9921 21.1881 11.9574 21.1574 12.003 20.9784C12.0682 20.7225 12.2119 20.5002 12.2944 20.3727C12.4581 20.1196 12.5522 20.066 12.575 19.8882C12.6051 19.6536 12.4776 19.4629 12.4671 19.4476C12.3735 19.3118 12.305 19.3382 12.111 19.1503C12.024 19.066 11.9313 18.9762 11.8627 18.8309C11.788 18.6726 11.7811 18.5313 11.7764 18.4124C11.774 18.3535 11.7687 18.1256 11.8627 17.8397C11.9413 17.601 12.0095 17.5639 12.057 17.3221C12.0943 17.1324 12.0734 17.0482 12.0462 16.9917C12.0069 16.9101 11.9662 16.9107 11.8736 16.7935C11.7773 16.6715 11.7311 16.5564 11.7117 16.5071C11.68 16.4264 11.6409 16.2997 11.633 16.1366L11.6328 16.1367Z" fill="#29CEF5"/>
<path d="M13.0813 16.3292C13.0677 16.2148 13.0572 16.1272 13.1102 16.0748C13.2116 15.9745 13.5012 16.0461 13.6034 16.2135C13.6498 16.2896 13.6204 16.3247 13.653 16.5152C13.6859 16.7073 13.7265 16.7339 13.7729 16.9224C13.8113 17.0785 13.85 17.2358 13.8191 17.4155C13.7854 17.6115 13.6847 17.7427 13.5572 17.9086C13.4031 18.1091 13.3646 18.0832 13.1719 18.3247C12.9893 18.5535 12.9278 18.6971 12.9099 18.7408C12.8551 18.8746 12.8344 18.9862 12.8175 19.0798C12.7803 19.2856 12.7832 19.4334 12.7818 19.5582C12.7772 19.9498 12.7285 20.2896 12.6942 20.5284C12.6437 20.8813 12.6092 20.9438 12.648 21.0986C12.693 21.2783 12.769 21.3122 12.8021 21.5301C12.8281 21.7015 12.7907 21.7446 12.8329 21.9154C12.8521 21.9933 12.8612 21.9899 12.9562 22.2236C13.0342 22.4157 13.0732 22.5117 13.0949 22.5935C13.149 22.7977 13.1158 22.8309 13.1768 22.9498C13.2435 23.0798 13.2922 23.0578 13.3548 23.1798C13.4261 23.319 13.3744 23.37 13.434 23.5952C13.4761 23.7547 13.5398 23.8721 13.5573 23.9034C13.66 24.0875 13.7282 24.0991 13.7735 24.2412C13.7804 24.2627 13.849 24.4776 13.7577 24.5507C13.6775 24.6147 13.5009 24.5486 13.4032 24.4428C13.3296 24.363 13.3304 24.2926 13.2842 24.031C13.2392 23.7761 13.2087 23.6029 13.1412 23.4103C13.1026 23.2999 13.1055 23.3365 12.9717 23.025C12.8337 22.7039 12.8466 22.7022 12.7713 22.5473C12.6853 22.3701 12.6013 22.234 12.5094 22.085C12.3417 21.8133 12.3345 21.8388 12.305 21.7632C12.2276 21.5652 12.3026 21.4544 12.3861 20.9908C12.4606 20.577 12.4966 20.3653 12.4323 20.1278C12.4098 20.0447 12.3973 20.0355 12.309 19.7579C12.2151 19.4626 12.1937 19.3611 12.2234 19.2469C12.244 19.1679 12.2764 19.1308 12.3707 19.0028C12.4332 18.9178 12.6184 18.6662 12.7097 18.5097C12.9484 18.1002 12.8021 17.8998 13.0179 17.7391C13.1641 17.6303 13.2678 17.6949 13.4032 17.5542C13.4113 17.5458 13.5848 17.3602 13.5419 17.1535C13.5129 17.0138 13.4181 17.0246 13.2645 16.7991C13.2053 16.7123 13.1075 16.5465 13.0815 16.3292H13.0813Z" fill="#29CEF5"/>
<path d="M16.3502 19.6983C16.265 19.8344 16.255 19.9399 16.2627 20.0126C16.2752 20.1296 16.3326 20.1508 16.3311 20.2725C16.3304 20.3354 16.3151 20.3294 16.2627 20.5461C16.2367 20.654 16.2413 20.6523 16.2217 20.724C16.179 20.8806 16.1554 20.8948 16.167 20.9292C16.2058 21.0449 16.552 21.1233 16.6595 20.9702C16.7084 20.9006 16.7057 20.7863 16.6595 20.7103C16.611 20.6304 16.5447 20.6425 16.5227 20.5735C16.4983 20.4968 16.5744 20.4642 16.5774 20.3272C16.5791 20.2493 16.555 20.2401 16.5637 20.163C16.5722 20.0875 16.5976 20.0758 16.6184 19.9988C16.653 19.871 16.6034 19.8277 16.6321 19.7389C16.6485 19.688 16.6629 19.6617 16.7331 19.6079" fill="#29CEF5"/>
<path d="M15.4335 23.6996C15.3475 23.5821 15.2147 23.6214 15.1637 23.5034C15.1365 23.4402 15.1571 23.3887 15.2373 23.1601C15.3739 22.771 15.3704 22.7601 15.4089 22.7187C15.5831 22.5316 15.8487 22.5454 15.8748 22.5471C15.9001 22.5487 16.2091 22.5728 16.2671 22.7432C16.3117 22.8742 16.1553 22.9363 16.12 23.1846C16.0883 23.4076 16.2019 23.445 16.169 23.675C16.1355 23.9096 16.0101 23.9209 16.0219 24.0918C16.0355 24.2893 16.2061 24.3214 16.2269 24.5517C16.2306 24.5917 16.2456 24.7582 16.1445 24.8519C16.0588 24.9313 15.931 24.9142 15.6752 24.8802C15.4777 24.854 15.3789 24.8408 15.3354 24.7783C15.2751 24.6918 15.3381 24.5978 15.4089 24.288C15.4812 23.972 15.5156 23.8118 15.4335 23.6996Z" fill="#29CEF5"/>
<g opacity="0.65">
<path d="M11.9655 18.2335C11.9457 18.3629 11.9548 18.4915 11.9985 18.6134C12.0096 18.6461 12.0243 18.6806 12.0422 18.7102C12.0494 18.7232 12.0627 18.7421 12.0708 18.7546C12.1068 18.8045 12.1507 18.8823 12.1827 18.9356C12.2027 18.9694 12.2219 19.0011 12.24 19.037L12.2324 19.0467C12.1513 19.0268 12.0835 18.9768 12.0285 18.9158C11.9942 18.8782 11.9693 18.8313 11.9523 18.7833C11.9461 18.7674 11.9386 18.7415 11.9332 18.725C11.8811 18.5638 11.8872 18.3843 11.9536 18.2301L11.9655 18.2335L11.9655 18.2335Z" fill="white"/>
</g>
<g opacity="0.5">
<path d="M12.4607 20.6731C12.4202 20.7358 12.3871 20.7948 12.3593 20.8615C12.3503 20.8821 12.3419 20.9026 12.3346 20.9233C12.3195 20.9636 12.3275 21.0118 12.2974 21.046C12.2621 21.0891 12.2251 21.1181 12.168 21.148L12.1468 21.144C12.0878 21.0765 12.0719 20.9612 12.1306 20.8936C12.1489 20.8725 12.1697 20.8535 12.1881 20.8327C12.2323 20.7813 12.2843 20.7394 12.3416 20.7053C12.3753 20.6856 12.4108 20.6685 12.4476 20.6561L12.4607 20.6731H12.4607Z" fill="white"/>
</g>
<g opacity="0.5">
<path d="M13.3795 17.8171C13.2998 17.8232 13.2202 17.8544 13.1673 17.9108C13.1617 17.916 13.1556 17.9259 13.1511 17.9322C13.1381 17.9548 13.1292 17.9788 13.1124 17.9991C13.1018 18.013 13.0903 18.0276 13.0777 18.0437C13.0648 18.0599 13.0512 18.0772 13.0329 18.0976L13.0206 18.0972C12.9746 18.0327 12.986 17.9336 13.0435 17.8803C13.0622 17.8627 13.0846 17.8479 13.1061 17.834C13.1423 17.8104 13.1845 17.7948 13.2272 17.789C13.2796 17.7822 13.3339 17.787 13.3815 17.805L13.3795 17.8171V17.8171Z" fill="white"/>
</g>
<g opacity="0.55">
<path d="M11.7422 16.1533C11.7646 16.0804 11.8281 16.0202 11.9024 15.996C11.9922 15.962 12.1102 15.9867 12.1265 16.0966C12.1349 16.1604 12.1041 16.2202 12.0551 16.246L12.0475 16.2407C12.0516 16.1955 12.052 16.1547 12.0368 16.1169C12.0266 16.0949 12.0201 16.078 12.0014 16.0644C11.9628 16.0412 11.8958 16.0563 11.8544 16.0719C11.814 16.0878 11.778 16.1187 11.7505 16.1575L11.7422 16.1534L11.7422 16.1533Z" fill="white"/>
</g>
<g opacity="0.55">
<path d="M13.5723 16.4063C13.5463 16.3281 13.4887 16.2731 13.4187 16.2363C13.3792 16.2143 13.3284 16.1929 13.2857 16.2035C13.2492 16.2127 13.2225 16.2288 13.2053 16.2666C13.1956 16.2867 13.1909 16.3119 13.1873 16.3416L13.1786 16.3447C13.1703 16.3364 13.1633 16.3269 13.1575 16.3167C13.119 16.2489 13.1485 16.1532 13.2242 16.123C13.3032 16.0911 13.3914 16.1388 13.4528 16.1854C13.5209 16.2378 13.5772 16.3183 13.5813 16.4046L13.5723 16.4063Z" fill="white"/>
</g>
<g opacity="0.55">
<path d="M11.9901 23.2336C11.944 23.2672 11.9143 23.3111 11.9046 23.364C11.9017 23.3797 11.9009 23.3954 11.9022 23.4105C11.9036 23.4296 11.9129 23.446 11.9208 23.4624C11.922 23.4658 11.9257 23.4734 11.9263 23.4769C11.9282 23.4817 11.9291 23.4872 11.9305 23.4921C11.9384 23.5287 11.9462 23.5588 11.9578 23.6004L11.9513 23.6109C11.8927 23.6193 11.8381 23.5818 11.8114 23.5318C11.79 23.4923 11.7964 23.4437 11.8044 23.4021C11.8132 23.3553 11.8369 23.3117 11.8709 23.2796C11.9039 23.2484 11.9444 23.2281 11.9856 23.2223L11.9902 23.2337L11.9901 23.2336Z" fill="white"/>
</g>
<g opacity="0.45">
<path d="M13.2161 23.152C13.275 23.172 13.3237 23.2175 13.3547 23.2713C13.3788 23.3034 13.3827 23.3402 13.3661 23.3771C13.3596 23.391 13.3505 23.4043 13.3358 23.4151L13.3267 23.4139C13.3077 23.3904 13.2961 23.3709 13.2853 23.3466C13.2756 23.3269 13.2816 23.3046 13.276 23.2839C13.2642 23.2391 13.2413 23.1968 13.2109 23.1596L13.2162 23.152H13.2161Z" fill="white"/>
</g>
<g opacity="0.65">
<path d="M13.464 24.0831C13.5514 24.0767 13.641 24.1117 13.7028 24.174C13.7406 24.2151 13.7878 24.259 13.7886 24.3189C13.7898 24.3727 13.7724 24.4245 13.7269 24.4596L13.7116 24.4575C13.6923 24.4349 13.679 24.4165 13.6673 24.3994C13.6508 24.3743 13.6378 24.3557 13.6289 24.3299C13.6221 24.3063 13.625 24.2802 13.6141 24.2574C13.5848 24.1895 13.5297 24.1342 13.4609 24.0982L13.464 24.0831H13.464Z" fill="white"/>
</g>
<g opacity="0.4">
<path d="M15.5856 22.8958C15.4322 23.0398 15.3983 23.232 15.5497 23.389C15.576 23.405 15.6426 23.354 15.6692 23.3384L15.6798 23.3445C15.6789 23.3646 15.6741 23.3837 15.667 23.4026C15.6376 23.4814 15.559 23.5282 15.4786 23.4865C15.3963 23.4434 15.3739 23.3437 15.3657 23.2605C15.3612 23.221 15.363 23.1805 15.371 23.1415C15.3955 23.0293 15.4819 22.9364 15.5785 22.8857L15.5856 22.8958H15.5856Z" fill="white"/>
</g>
<g opacity="0.55">
<path d="M15.8515 24.3582C15.9599 24.3702 16.0719 24.4491 16.0942 24.5632C16.1082 24.6242 16.1053 24.6967 16.0617 24.7458C16.0216 24.7926 15.9628 24.8216 15.901 24.814L15.8954 24.803C15.9194 24.7571 15.9415 24.7207 15.959 24.6778C15.9717 24.6426 15.9959 24.6144 15.9965 24.5759C15.9972 24.4885 15.9259 24.4119 15.8477 24.3699L15.8514 24.3582L15.8515 24.3582Z" fill="white"/>
</g>
<path d="M17.0418 20.8138C16.9441 20.8726 16.7952 20.9494 16.6032 20.999C16.3504 21.0645 16.1543 21.0489 15.6597 20.9827C14.9009 20.8811 14.7475 20.8353 14.4092 20.8601C14.1303 20.8806 13.952 20.8962 13.7963 21.0318C13.5883 21.2128 13.5604 21.4858 13.5265 21.8164C13.4863 22.209 13.4594 22.4719 13.6246 22.65C13.8077 22.8473 14.1201 22.8256 14.5318 22.7971C14.9617 22.7673 15.0347 22.6757 15.5136 22.6175C15.9291 22.5671 16.2695 22.5881 16.4198 22.6009C16.9549 22.6468 17.1638 22.7679 17.6457 22.7236C17.8197 22.7075 17.9611 22.6762 18.0546 22.6518" fill="#EAE1D8"/>
<path d="M14.418 20.8699L14.4602 22.8124L15.4233 22.7088L15.4384 20.9609L16.3815 21.0108L16.4285 22.6107" stroke="#AA908C" stroke-width="0.184784" stroke-miterlimit="10"/>
<path d="M17.3273 22.733V21.7111L13.5273 21.8287" stroke="#AA908C" stroke-width="0.184784" stroke-miterlimit="10"/>
<path d="M10.0781 14.4181C10.4748 14.0865 10.9713 13.8829 11.4872 13.8302C11.6011 13.8195 11.7154 13.8145 11.8302 13.8124C12.4422 13.8023 13.1126 13.9286 13.5726 14.3652C13.625 14.4157 13.6824 14.469 13.7398 14.51C13.8046 14.5569 13.8725 14.593 13.9477 14.6171L13.9794 14.6257C13.9847 14.6275 13.9901 14.6283 13.9955 14.6294L14.0117 14.6326L14.028 14.636C14.1009 14.6472 14.1769 14.6456 14.2496 14.6312C14.5085 14.5824 14.6908 14.3704 14.7679 14.125C14.7782 14.2411 14.7576 14.3571 14.7124 14.4656C14.6016 14.7354 14.3251 14.9052 14.0371 14.9161C14.0046 14.9174 13.9696 14.9164 13.9371 14.914C13.9057 14.911 13.8679 14.906 13.8379 14.8997C13.7416 14.8803 13.6466 14.8422 13.562 14.7954C13.4919 14.7563 13.4297 14.7124 13.3691 14.6646C13.3192 14.6247 13.2682 14.5859 13.2157 14.5516C12.8473 14.3158 12.4139 14.2334 11.9808 14.1921C11.8744 14.1825 11.7682 14.176 11.6607 14.171C11.5576 14.1655 11.4489 14.1627 11.3457 14.1661C11.1082 14.1737 10.8671 14.2074 10.6348 14.2605C10.4463 14.3017 10.2622 14.3597 10.0782 14.4181L10.0781 14.4181Z" fill="#8B3826"/>
<g opacity="0.85">
<path d="M14.6435 18.1974C14.4882 18.6101 14.2076 18.9735 13.8602 19.2445C13.7466 19.333 13.6147 19.4125 13.4948 19.4858C13.4544 19.5104 13.4141 19.5368 13.3755 19.5638C13.2968 19.6204 13.2244 19.6873 13.1664 19.7652C12.9186 20.0971 12.8835 20.5715 12.867 20.9744C12.8628 21.0975 12.8627 21.219 12.8594 21.3431C12.8314 21.265 12.8071 21.1857 12.7871 21.1052C12.7561 20.985 12.7336 20.8602 12.7188 20.7367C12.6592 20.2174 12.7576 19.6528 13.216 19.3378C13.3261 19.2614 13.453 19.197 13.5658 19.1318C13.6594 19.0781 13.7491 19.0211 13.8366 18.9589C14.138 18.7437 14.4017 18.4791 14.6434 18.1973L14.6435 18.1974Z" fill="#8B3826"/>
</g>
<path d="M17.0437 20.8138C16.9556 20.8548 16.8227 20.9096 16.6554 20.9522C16.3608 21.0273 16.0931 21.0302 15.4316 20.9512C14.6213 20.8544 14.4896 20.7865 14.1983 20.879C14.0781 20.9171 13.8352 20.9977 13.6503 21.2273C13.2959 21.6674 13.477 22.2551 13.5018 22.3315C13.5505 22.4811 13.5991 22.6305 13.741 22.7383C13.7962 22.7802 13.9639 22.8906 14.6792 22.7833C15.1175 22.7176 15.1356 22.664 15.5155 22.6176C15.891 22.5717 16.1919 22.5852 16.3225 22.5937C16.7309 22.6205 16.8141 22.6867 17.1621 22.7128C17.3735 22.7287 17.6786 22.7295 18.0565 22.6518" stroke="#AF6F61" stroke-width="0.33877" stroke-miterlimit="10"/>
<path opacity="0.45" d="M18.8242 22.992C18.5749 23.3133 18.2759 23.5791 18.0765 23.7404C13.9369 17.7636 13.6576 12.2208 16.6835 9.92556C17.0153 9.67383 17.5162 9.36308 18.2634 9.1095L19.2698 13.0318C19.8607 18.1857 19.5568 22.048 18.8242 22.992Z" fill="#8B3826"/>
<path d="M20.2276 8.26441C20.0022 8.30728 18.8522 8.54312 17.79 9.50197C15.2881 11.7605 15.5665 15.9602 16.3275 17.1523C16.4239 17.3034 16.7679 17.7819 16.9275 18.5023C17.0059 18.8563 17.0212 19.1849 17.0401 19.5899C17.0758 20.3578 17.0096 20.4965 17.0401 20.8275C17.0989 21.4658 17.4312 21.8838 18.0526 22.665C18.3921 23.0919 18.879 23.5496 19.8527 24.4651C20.1325 24.7282 20.4143 24.978 20.9777 25.4777C21.4213 25.871 21.5177 25.9496 21.6527 26.0402C22.1991 26.4071 22.7181 26.5297 23.0403 26.6028C23.4851 26.7036 24.4003 26.9111 25.4779 26.5653C25.8848 26.4347 26.6898 26.1763 27.203 25.4402C27.3954 25.1642 27.5063 24.8562 27.728 24.2402C27.9863 23.5224 27.9353 23.4321 28.1405 22.9276C28.4245 22.2295 28.5796 22.2615 28.8905 21.5776C29.0937 21.1306 29.3389 20.5914 29.3405 19.8525C29.3415 19.4497 29.3429 18.7717 28.928 18.2024C28.7769 17.9951 28.6434 17.9022 28.5531 17.6399C28.4134 17.2346 28.5321 16.8757 28.5906 16.6273C28.6849 16.2272 28.6285 15.7481 28.5155 14.7898C28.3349 13.2558 27.5679 12.0254 27.4655 11.8647C26.5352 10.4034 25.6192 9.3385 24.8029 8.90204C23.6971 8.31079 21.9568 7.93586 20.2277 8.26453L20.2276 8.26441Z" fill="#F6B79F"/>
<path opacity="0.65" d="M25.5737 18.1776C25.51 18.1757 25.3664 18.5396 25.4371 18.8975C25.5839 19.6404 26.5968 20.0636 26.6623 19.9839C26.6855 19.9555 26.5401 19.779 26.2492 19.4258C25.9328 19.0416 25.8701 19.0193 25.7748 18.833C25.5915 18.4743 25.6308 18.1792 25.5737 18.1776Z" fill="white" stroke="white" stroke-width="0.00615946" stroke-miterlimit="10"/>
<path d="M19.9538 8.3144C19.3435 8.4833 18.9129 8.71218 18.7852 8.78228C17.4442 9.51821 16.7906 10.6918 16.5351 11.1644C16.5351 11.1644 15.492 13.0943 15.8791 15.7706C15.9611 16.3371 16.151 16.803 16.151 16.803C16.3266 17.234 16.4716 17.378 16.6312 17.6683C17.2856 18.8574 17.0335 20.4031 17.034 20.4106C17.034 20.4106 17.0571 20.9281 17.0626 21.0138C17.0875 21.3987 17.3201 21.7604 17.7939 22.3342C18.175 22.7957 18.628 23.2926 19.3879 24.0221C19.5029 24.1324 19.7957 24.4022 20.3814 24.9419C21.2725 25.7629 21.4137 25.8833 21.6471 26.0293C22.2359 26.3976 22.7737 26.5299 23.0346 26.5918C23.4649 26.694 24.391 26.9014 25.4722 26.5543C25.8792 26.4238 26.6841 26.1654 27.1973 25.4293C27.3897 25.1532 27.5006 24.8453 27.7223 24.2293C27.9807 23.5115 27.9297 23.4211 28.1348 22.9167C28.4188 22.2186 28.574 22.2505 28.8849 21.5667C29.0832 21.1304 29.3309 20.5855 29.3349 19.8416C29.3374 19.3584 29.341 18.6884 28.9224 18.1915C28.7925 18.0373 28.6389 17.9199 28.5441 17.6563C28.4241 17.3225 28.4948 17.0227 28.5292 16.8469C28.6339 16.3115 28.5426 15.7557 28.5601 15.2104C28.605 13.8099 27.6837 12.2529 27.3126 11.6257C26.7865 10.7365 26.2848 9.8887 25.2426 9.18295C24.1654 8.45361 23.1126 8.28342 22.5684 8.20144C22.0721 8.12666 21.1164 7.99282 19.9538 8.31446V8.3144Z" stroke="#8B3826" stroke-width="0.246378" stroke-miterlimit="10"/>
<path opacity="0.55" d="M23.1066 22.4968C23.0819 22.5431 23.4577 22.8838 23.9357 23.0634C25.2302 23.5499 26.7608 22.6621 26.7514 22.6326C26.7478 22.6215 26.5264 22.7255 26.0024 22.8171C25.5645 22.8936 24.9531 23.0005 24.2572 22.8734C23.5615 22.7463 23.1321 22.4495 23.1067 22.4969L23.1066 22.4968Z" fill="white"/>
<path d="M17.8481 18.6264C18.0036 18.6 18.078 18.2746 18.0143 17.8997C17.9506 17.5247 17.7729 17.2421 17.6175 17.2685C17.462 17.2949 17.3876 17.6203 17.4513 17.9953C17.515 18.3703 17.6926 18.6528 17.8481 18.6264Z" stroke="#8B3826" stroke-width="0.246378" stroke-miterlimit="10"/>
<path d="M23.4713 10.3527C23.7924 10.1841 24.1789 10.0994 24.544 10.152C24.665 10.1711 24.7849 10.2184 24.8979 10.2523C24.9231 10.2597 24.9519 10.2672 24.9777 10.2719C24.9952 10.2758 25.0193 10.2787 25.037 10.2811C25.0696 10.2844 25.1036 10.2864 25.1365 10.2859C25.3979 10.2793 25.6497 10.2078 25.8974 10.1163C25.9246 10.1054 25.9521 10.0951 25.9798 10.085C26.0022 10.076 26.04 10.061 26.063 10.0524C26.1063 10.0363 26.1474 10.0184 26.1922 10.0041C26.1989 10.0019 26.2062 10.0056 26.2084 10.0123C26.2097 10.0164 26.2088 10.0209 26.2063 10.0241C26.1591 10.0863 26.1056 10.1426 26.0485 10.1954C25.8479 10.3737 25.5914 10.5114 25.3174 10.5261C25.2438 10.5305 25.167 10.5248 25.0943 10.5129C24.9454 10.4903 24.8006 10.4265 24.6671 10.3683C24.5623 10.3231 24.4582 10.2936 24.3453 10.28C24.0549 10.2459 23.7628 10.2796 23.4812 10.3754C23.4747 10.3776 23.4677 10.3742 23.4655 10.3677C23.4635 10.3619 23.4661 10.3556 23.4714 10.3528L23.4713 10.3527Z" fill="#8B3826"/>
<path d="M19.9297 11.6201C20.4301 11.3083 20.9807 11.0825 21.5518 10.9354C21.6813 10.9026 21.8517 10.8597 21.9794 10.8316C22.3794 10.7398 22.7969 10.6848 23.2084 10.7285C23.3199 10.739 23.4353 10.7565 23.545 10.7789C23.6922 10.8088 23.8395 10.8524 23.9802 10.9016C24.2002 10.9791 24.3632 11.0395 24.6008 11.0241C24.7289 11.0155 24.8547 10.9937 24.9775 10.9539C25.131 10.9038 25.2887 10.8379 25.4484 10.7985C25.5385 10.7749 25.6317 10.7576 25.7239 10.7436C26.0538 10.6957 26.3935 10.702 26.7167 10.7661C26.5702 10.7648 26.4247 10.7698 26.2806 10.7832C26.1727 10.7932 26.0659 10.8086 25.9594 10.8277C25.7847 10.8606 25.6105 10.905 25.444 10.967C25.2194 11.0519 25.0044 11.176 24.763 11.2173C24.716 11.2267 24.6666 11.234 24.6189 11.2393C24.4905 11.2534 24.3585 11.2485 24.2319 11.2222C24.0492 11.1846 23.878 11.114 23.7007 11.0675C23.5825 11.0354 23.4619 11.0107 23.3407 10.9925C23.1845 10.9704 23.0267 10.9567 22.869 10.9567C22.5128 10.9548 22.1588 11.0169 21.8083 11.0833C21.1658 11.1927 20.5348 11.3757 19.9297 11.6201H19.9297Z" fill="#8B3826"/>
<path d="M21.793 11.8327C22.1421 11.8936 22.4984 11.9195 22.8482 11.8589C22.8876 11.8517 22.9362 11.842 22.9752 11.8332C23.0448 11.8171 23.1142 11.7964 23.1816 11.7739C23.2618 11.7472 23.3435 11.7122 23.4205 11.6771C23.5027 11.6397 23.587 11.5959 23.6715 11.5637C23.7014 11.5517 23.7343 11.5406 23.7651 11.5313L23.8141 11.5183C23.8279 11.5149 23.8499 11.5108 23.8641 11.508C23.8779 11.5048 23.9002 11.5019 23.9147 11.5003C24.0151 11.4877 24.1166 11.4906 24.2163 11.5063C24.2487 11.5113 24.2855 11.5194 24.3171 11.5281C24.6594 11.6293 24.6899 11.8224 25.1141 11.8426C25.4285 11.8566 25.7371 11.7557 26.0326 11.6547C26.1609 11.6123 26.2823 11.5592 26.4127 11.5164C26.6514 11.4377 26.9168 11.4593 27.1486 11.5502C27.2045 11.5722 27.2602 11.5987 27.3123 11.6286C27.2834 11.62 27.2544 11.6122 27.2255 11.6049C27.0288 11.5559 26.8182 11.5449 26.6213 11.594C26.451 11.6372 26.3024 11.7367 26.1406 11.8064C26.0863 11.8308 26.0286 11.856 25.9738 11.8787C25.7147 11.9875 25.4391 12.0767 25.1555 12.0803C25.04 12.0822 24.922 12.0711 24.8107 12.0398C24.7004 12.0102 24.5878 11.9488 24.497 11.8885C24.4046 11.8278 24.3257 11.7804 24.2226 11.7549C24.1309 11.733 24.0345 11.7255 23.9406 11.7338C23.8188 11.7429 23.7018 11.7915 23.5878 11.8376C23.5511 11.8527 23.4756 11.8827 23.4383 11.8964C23.3736 11.9194 23.303 11.9419 23.2365 11.9589C22.7586 12.0839 22.2449 12.0209 21.793 11.8325V11.8327Z" fill="#8B3826"/>
<path d="M23.9453 12.4232C24.0542 12.3241 24.1991 12.2732 24.3462 12.2669C24.7415 12.2504 25.0879 12.5601 25.0982 12.9598C25.0999 13.0319 25.0937 13.1046 25.0696 13.1727C25.0533 13.1053 25.0336 13.0406 25.009 12.9772C24.8376 12.5159 24.4146 12.3286 23.9454 12.4232H23.9453Z" fill="#8B3826"/>
<path d="M20.4609 15.2412C20.7101 14.8054 21.1653 14.4694 21.6668 14.3863C21.7012 14.382 21.743 14.3758 21.7773 14.3738C21.8181 14.3702 21.8674 14.3691 21.9082 14.3685C22.0237 14.3688 22.1441 14.3771 22.259 14.3783C22.3119 14.3785 22.3664 14.3769 22.4192 14.3746C22.4485 14.3721 22.4783 14.3701 22.5075 14.3679C22.6274 14.3554 22.7528 14.3352 22.8702 14.3132C23.5453 14.1945 24.0602 13.8919 24.3526 13.2488C24.3914 13.1657 24.4243 13.0809 24.456 12.994C24.4621 13.0472 24.4636 13.1009 24.4632 13.1548C24.4551 13.6797 24.1808 14.1458 23.7408 14.4288C23.4085 14.6445 23.015 14.7423 22.6263 14.7868C22.4318 14.8083 22.2297 14.7991 22.0396 14.774C21.9874 14.7675 21.9085 14.7575 21.8561 14.7535C21.7887 14.7476 21.7194 14.7461 21.6518 14.7507C21.5939 14.7537 21.5365 14.763 21.479 14.7723C21.4328 14.7812 21.3846 14.7914 21.3389 14.8036C21.0196 14.8856 20.7315 15.0514 20.4609 15.2414V15.2412Z" fill="#8B3826"/>
<path d="M25.4363 13.9905C25.5144 14.2217 25.6275 14.4475 25.7959 14.6227C26.0147 14.8531 26.3182 15.0005 26.6334 15.0335C26.659 15.0355 26.6854 15.038 26.7109 15.0385C26.7164 15.0385 26.7382 15.0391 26.743 15.0392C26.7493 15.0395 26.7523 15.0384 26.7583 15.0382C26.9122 15.0166 27.0653 14.9827 27.2202 14.9576C27.3903 14.9287 27.5557 14.9032 27.729 14.8834C27.9584 14.8569 28.146 14.8579 28.3337 15.0163C28.4722 15.1348 28.5575 15.3132 28.5825 15.4894C28.5251 15.4254 28.4656 15.3638 28.3996 15.3116C28.314 15.2429 28.2131 15.1895 28.1044 15.1774C28.0819 15.1751 28.0593 15.1747 28.0371 15.1776C27.9632 15.1861 27.8777 15.2164 27.8036 15.2395C27.6854 15.2776 27.5569 15.3185 27.438 15.3517C27.2489 15.4046 27.0597 15.4558 26.865 15.4894C26.8366 15.494 26.8051 15.4986 26.7757 15.5003C26.762 15.5009 26.7443 15.5014 26.7313 15.5007C26.6813 15.4995 26.6289 15.4965 26.5797 15.4897C26.2496 15.4458 25.9339 15.2843 25.7137 15.034C25.4641 14.7548 25.3462 14.3556 25.4364 13.9905H25.4363Z" fill="#8B3826"/>
<path d="M20.5525 21.0162C20.3701 20.8258 20.3894 20.5079 20.5443 20.3045C20.7527 20.0162 21.197 19.9501 21.4539 20.2078C21.4803 20.2349 21.5032 20.2647 21.5205 20.2979C21.4841 20.2891 21.45 20.2813 21.4166 20.2755C21.205 20.237 20.9706 20.2809 20.8107 20.4194C20.6906 20.5202 20.6141 20.6583 20.5777 20.8136C20.5625 20.88 20.5564 20.9471 20.5525 21.0161V21.0162Z" fill="#8B3826"/>
<g opacity="0.6">
<path d="M23.2695 15.0276C23.4128 15.0012 23.5607 15.03 23.6929 15.0872C24.0951 15.2607 24.3475 15.739 24.2447 16.1672C24.2353 16.2044 24.2237 16.2411 24.2063 16.2767C24.1857 16.2428 24.1682 16.2102 24.1506 16.1785C24.0435 15.9815 23.9321 15.7748 23.8028 15.5987C23.6917 15.4453 23.5662 15.3106 23.4275 15.178C23.3754 15.1278 23.3224 15.0806 23.2695 15.0276V15.0276Z" fill="#8B3826"/>
</g>
<g opacity="0.75">
<path d="M25.6401 17.4555C25.5493 17.3148 25.4969 17.153 25.468 16.9887C25.3565 16.3618 25.6631 15.669 26.2244 15.3566C26.3096 15.3093 26.399 15.2701 26.4939 15.2468C26.4264 15.3357 26.3602 15.4175 26.2996 15.5015C25.8331 16.1329 25.696 16.6841 25.6401 17.4555H25.6401Z" fill="#8B3826"/>
</g>
<path d="M24.5236 21.541C24.5179 21.329 24.6691 21.116 24.8785 21.055C25.0017 21.0162 25.1371 21.0022 25.2435 21.0905C25.3391 21.1688 25.3927 21.2922 25.363 21.4128C25.3597 21.4246 25.3469 21.4307 25.3356 21.4267C25.3106 21.4203 25.2802 21.4104 25.256 21.4031L25.1899 21.383C25.1492 21.3708 25.115 21.3617 25.0858 21.3548C25.0712 21.3513 25.0583 21.3476 25.0463 21.3427C25.0205 21.3325 24.9986 21.3148 24.9711 21.3053C24.924 21.2891 24.872 21.2983 24.8246 21.3124C24.73 21.3404 24.6456 21.4091 24.589 21.4908C24.5762 21.5089 24.5647 21.5283 24.5533 21.5485C24.5458 21.5624 24.5236 21.557 24.5236 21.5411V21.541Z" fill="#3A0F08"/>
<path d="M25.5836 17.7227C25.5877 18.4797 25.9307 18.96 26.4973 19.4231C26.6466 19.5514 26.801 19.7004 26.9425 19.8379C26.9745 19.8699 27.0218 19.9162 27.0524 19.9491C27.139 20.04 27.1893 20.1107 27.207 20.2382C27.2428 20.5156 27.0516 20.7505 26.8905 20.9525C26.7181 21.1621 26.5485 21.3775 26.2689 21.4397C26.164 21.4645 26.0569 21.467 25.9562 21.4482C26.1473 21.4055 26.3194 21.317 26.4401 21.1656C26.5228 21.0644 26.5999 20.9167 26.6694 20.7993C26.7175 20.7164 26.7671 20.6318 26.8074 20.5473C26.847 20.4609 26.8957 20.3509 26.8545 20.262C26.8225 20.2238 26.7811 20.1869 26.7448 20.1524C26.5859 20.007 26.4133 19.8418 26.2552 19.6959C26.1588 19.6093 26.0621 19.5185 25.9766 19.4206C25.5557 18.9453 25.3468 18.3367 25.5837 17.7228L25.5836 17.7227Z" fill="#8B3826"/>
<path d="M24.1541 20.0405C23.6417 20.2155 23.3169 20.6561 23.5579 21.1917C23.6313 21.3557 23.7577 21.4996 23.9001 21.6154C23.7942 21.6186 23.6885 21.5913 23.5929 21.5439C23.2239 21.3621 23.042 20.8959 23.1949 20.51C23.335 20.1391 23.7761 19.8998 24.154 20.0405H24.1541Z" fill="#8B3826"/>
<path opacity="0.2" d="M23.7803 20.1141C24.0736 20.0243 24.2252 20.3543 24.6919 20.5141C25.6785 20.8518 26.6255 19.9325 26.8763 20.2262C27.0375 20.4149 26.7453 20.91 26.6704 21.037C26.4267 21.4499 26.0733 21.6405 25.928 21.7164C25.8438 21.7604 25.0587 22.1549 24.2008 21.818C23.9226 21.7087 23.4576 21.5262 23.3508 21.0861C23.2559 20.6947 23.4706 20.2089 23.7803 20.114V20.1141Z" fill="#8B3826"/>
<path d="M21.1879 22.0261C21.0876 21.5905 21.159 21.0237 21.63 20.8429C21.7281 20.8055 21.8369 20.7918 21.9393 20.7897C21.9875 20.7885 22.0289 20.7894 22.073 20.7885C22.1104 20.7875 22.156 20.7849 22.1935 20.7817C22.2168 20.7793 22.2424 20.7758 22.2658 20.7734C22.2828 20.7708 22.3207 20.7646 22.3379 20.7618C22.3612 20.7575 22.3866 20.7519 22.41 20.7472C22.4158 20.7463 22.4282 20.7434 22.4339 20.7419C22.8361 20.6466 23.2052 20.4374 23.5635 20.2321C23.5951 20.2142 23.6267 20.1961 23.6597 20.1793C23.6386 20.2093 23.6163 20.2383 23.594 20.2674C23.5499 20.3255 23.4993 20.3803 23.4505 20.434C23.4003 20.4857 23.3461 20.5396 23.2913 20.5869C22.98 20.8624 22.5862 21.0661 22.1648 21.0926C22.0634 21.1006 21.9491 21.0894 21.8478 21.0955C21.7702 21.1001 21.6963 21.1161 21.6285 21.1527C21.3447 21.3039 21.2585 21.7355 21.188 22.0261H21.1879Z" fill="#8B3826"/>
<path d="M26.7795 20.6516C26.893 20.7721 27.0108 20.9038 27.1464 20.9958C27.2616 21.0755 27.3864 21.1319 27.5212 21.1794C27.545 21.1881 27.5697 21.1963 27.5969 21.2067C27.5789 21.2296 27.5578 21.2478 27.5354 21.2643C27.3693 21.3828 27.1344 21.364 26.9712 21.2488C26.8296 21.1515 26.7385 20.9843 26.7423 20.8127C26.7441 20.7571 26.7532 20.7021 26.7795 20.6517V20.6516Z" fill="#8B3826"/>
<path d="M22.1641 21.894C22.8542 22.2987 23.6057 22.6043 24.3989 22.7213C25.0783 22.8261 25.7743 22.7946 26.4469 22.6556C26.6598 22.6127 26.8693 22.5575 27.0798 22.4982C26.9896 22.562 26.8947 22.6191 26.797 22.6716C25.3132 23.4691 23.2949 23.1542 22.1641 21.894V21.894Z" fill="#8B3826"/>
<g opacity="0.3">
<path d="M23.7266 23.595C23.8848 23.6632 24.0442 23.7339 24.2056 23.7892C24.359 23.8423 24.5161 23.8859 24.6758 23.9144C24.9502 23.9659 25.2292 23.9731 25.5089 23.9598C25.5647 23.9572 25.6188 23.9538 25.6764 23.9521C25.6415 23.9823 25.6038 24.0082 25.5648 24.032C25.1646 24.2728 24.641 24.2626 24.2295 24.0536C24.0264 23.9476 23.841 23.7956 23.7266 23.595H23.7266Z" fill="#8B3826"/>
</g>
<path d="M22.0859 17.716C22.8581 17.716 23.4842 17.4087 23.4842 17.0296C23.4842 16.6505 22.8581 16.3432 22.0859 16.3432C21.3136 16.3432 20.6875 16.6505 20.6875 17.0296C20.6875 17.4087 21.3136 17.716 22.0859 17.716Z" fill="#F4EAE9" stroke="#7C7C7C" stroke-width="0.184784" stroke-miterlimit="10"/>
<path d="M27.2082 17.7193C27.8086 17.7193 28.2953 17.4895 28.2953 17.2061C28.2953 16.9226 27.8086 16.6928 27.2082 16.6928C26.6078 16.6928 26.1211 16.9226 26.1211 17.2061C26.1211 17.4895 26.6078 17.7193 27.2082 17.7193Z" fill="#F4EAE9" stroke="#7C7C7C" stroke-width="0.184784" stroke-miterlimit="10"/>
<path d="M21.8213 17.8073C22.2663 17.8073 22.627 17.4711 22.627 17.0564C22.627 16.6417 22.2663 16.3055 21.8213 16.3055C21.3763 16.3055 21.0156 16.6417 21.0156 17.0564C21.0156 17.4711 21.3763 17.8073 21.8213 17.8073Z" fill="black"/>
<path d="M26.9377 17.8289C27.3111 17.8289 27.6137 17.5524 27.6137 17.2113C27.6137 16.8702 27.3111 16.5937 26.9377 16.5937C26.5644 16.5937 26.2617 16.8702 26.2617 17.2113C26.2617 17.5524 26.5644 17.8289 26.9377 17.8289Z" fill="black"/>
<path d="M22.3833 17.1885C22.5476 17.1885 22.6808 17.0553 22.6808 16.8911C22.6808 16.7268 22.5476 16.5937 22.3833 16.5937C22.2191 16.5937 22.0859 16.7268 22.0859 16.8911C22.0859 17.0553 22.2191 17.1885 22.3833 17.1885Z" fill="white"/>
<path d="M27.336 17.2163C27.4806 17.2163 27.5978 17.0992 27.5978 16.9546C27.5978 16.81 27.4806 16.6928 27.336 16.6928C27.1914 16.6928 27.0742 16.81 27.0742 16.9546C27.0742 17.0992 27.1914 17.2163 27.336 17.2163Z" fill="white"/>
<path d="M20.2501 17.1301C20.3912 16.7804 20.6612 16.4881 20.9902 16.3036C21.3633 16.093 21.8151 16.0313 22.236 16.1019C22.6928 16.1765 23.122 16.3953 23.4627 16.7064C23.6321 16.8613 23.7825 17.0388 23.8983 17.2373L23.9153 17.2672C23.9208 17.2774 23.9264 17.2873 23.9316 17.2975C23.9212 17.2924 23.9111 17.2869 23.9009 17.2816C23.8319 17.2443 23.7627 17.2052 23.6941 17.1682C23.2116 16.903 22.7069 16.669 22.1603 16.5879C21.9005 16.5497 21.6335 16.55 21.3752 16.6004C20.9639 16.675 20.5924 16.8887 20.25 17.1301H20.2501Z" fill="#8B3826"/>
<path d="M25.918 17.2636C26.0134 17.0077 26.2084 16.8022 26.437 16.6551C26.672 16.5052 26.9543 16.424 27.2336 16.4192C27.6493 16.41 28.0691 16.5763 28.3591 16.8741C28.4524 16.9708 28.5356 17.0781 28.5888 17.2023C28.5266 17.1765 28.4673 17.1522 28.4085 17.1291C28.0132 16.9708 27.5818 16.8588 27.1606 16.8836C26.7122 16.9058 26.3145 17.0601 25.918 17.2636Z" fill="#8B3826"/>
<g opacity="0.45">
<path d="M23.2603 18.1388C23.3747 18.0411 23.4573 17.9311 23.5074 17.7969C23.5188 17.7645 23.5304 17.7281 23.5365 17.6948C23.5468 17.6506 23.5526 17.6042 23.5472 17.5589C23.5419 17.515 23.529 17.4728 23.5253 17.4294C23.5208 17.3582 23.5287 17.2962 23.5345 17.2191C23.5383 17.1781 23.5436 17.132 23.5497 17.0886C23.5519 17.0725 23.5543 17.056 23.5578 17.0378C23.5596 17.0251 23.5718 17.0163 23.5845 17.0187C23.7453 17.0657 23.8656 17.2396 23.8777 17.4033C23.8846 17.5133 23.8387 17.6208 23.8005 17.7197C23.791 17.7413 23.78 17.765 23.7687 17.7855C23.6893 17.9367 23.5553 18.0582 23.3998 18.1273C23.3596 18.1451 23.3176 18.1596 23.2751 18.1693C23.2574 18.1731 23.2462 18.1502 23.2603 18.1388L23.2603 18.1388Z" fill="#8B3826"/>
</g>
<path d="M23.4629 17.524C23.3712 17.6278 23.2525 17.7099 23.1269 17.769C22.7086 17.9644 22.2202 17.936 21.7812 17.8428C21.7292 17.8319 21.6252 17.8088 21.5735 17.7965C21.3822 17.7504 21.1913 17.7179 20.9967 17.7304C20.9653 17.7333 20.9324 17.7355 20.901 17.7404C20.8796 17.7425 20.8501 17.7479 20.8289 17.7514C20.6543 17.7838 20.4842 17.8496 20.3264 17.9319C20.2945 17.9481 20.263 17.9656 20.2305 17.9827C20.2693 17.9201 20.3151 17.8621 20.366 17.8087C20.4825 17.6849 20.628 17.5863 20.7865 17.5218C20.8159 17.5095 20.8525 17.4971 20.8826 17.487C21.1739 17.3955 21.4558 17.4264 21.7472 17.4898C22.3115 17.6109 22.9044 17.7312 23.4629 17.5239L23.4629 17.524Z" fill="#8B3826"/>
<path d="M25.918 17.8274C25.9716 17.7989 26.0264 17.7751 26.0817 17.7529C26.1371 17.731 26.1931 17.711 26.2496 17.6932C26.3626 17.6573 26.4774 17.6286 26.5933 17.6064C26.7092 17.5838 26.8263 17.5678 26.9438 17.5574C26.9584 17.5562 26.9732 17.5547 26.9878 17.5537L27.0319 17.5508C27.0614 17.5488 27.0908 17.5475 27.1203 17.546C27.1497 17.5449 27.1792 17.5444 27.2087 17.5436C27.2381 17.5428 27.2676 17.5432 27.2972 17.5432C27.3267 17.5435 27.3561 17.5436 27.3856 17.5446L27.4739 17.5482C27.5328 17.552 27.5916 17.5557 27.6502 17.5621C27.7675 17.5741 27.8844 17.5914 27.9999 17.6157C28.1155 17.6396 28.23 17.67 28.3424 17.7073C28.3705 17.7168 28.3986 17.7264 28.4264 17.7368C28.4542 17.7473 28.4819 17.758 28.5095 17.7693C28.537 17.7808 28.5643 17.7931 28.5915 17.8054C28.6185 17.8185 28.6455 17.8315 28.6721 17.8463C28.6419 17.8506 28.6122 17.8532 28.5825 17.8559C28.5529 17.8585 28.5233 17.861 28.4939 17.8628C28.4645 17.8648 28.4352 17.8667 28.4061 17.868C28.3769 17.8696 28.3478 17.8711 28.3188 17.8721C28.2029 17.8769 28.0881 17.8798 27.974 17.8812C27.86 17.8827 27.7465 17.8832 27.6334 17.8833L27.4639 17.8827L27.2946 17.8819C27.069 17.8797 26.8433 17.8776 26.6153 17.8712L26.5297 17.8686L26.4437 17.8654C26.3863 17.8633 26.3287 17.8606 26.2707 17.8575C26.2128 17.8542 26.1546 17.8506 26.0958 17.846C26.0371 17.841 25.978 17.8361 25.918 17.8274H25.918Z" fill="#8B3826"/>
<path d="M24.4578 28.6396C24.6931 28.5275 24.9216 28.4017 25.1554 28.2868C25.1085 27.6205 24.7255 26.9787 24.2524 26.8731C24.0574 26.8297 23.8258 26.8725 23.6617 27C23.3954 27.207 23.3828 27.5782 23.3756 27.9447C23.3711 28.1754 23.3899 28.5209 23.5127 28.9357C23.8436 28.8985 24.1582 28.7824 24.4578 28.6396Z" fill="#DB9079"/>
<path d="M28.5438 26.9117C28.3394 26.9671 28.1378 27.0324 27.9388 27.1046C27.8997 27.1187 27.8608 27.1332 27.8219 27.1478C27.8037 27.1547 27.7855 27.1616 27.7673 27.1686C27.7669 27.1687 27.7666 27.1689 27.7661 27.169C27.7483 27.1759 27.7306 27.1828 27.7128 27.1897C27.6947 27.1968 27.6765 27.2039 27.6584 27.2111C27.3589 26.7091 27.0733 26.135 26.9232 25.7601C26.8897 25.6765 26.8408 25.5475 26.8253 25.3982C26.8251 25.3967 26.8249 25.3951 26.8248 25.3936C26.8136 25.2815 26.8215 25.1581 26.8688 25.0342C26.9435 24.8386 27.1289 24.6091 27.3296 24.6129C27.4716 24.6156 27.6043 24.7347 27.8957 25.2976C28.1888 25.8636 28.4171 26.3131 28.5438 26.9117Z" fill="#E29B86"/>
<path d="M26.3398 27.7849C26.319 27.7939 26.2983 27.8029 26.2776 27.8119C26.2736 27.8136 26.2697 27.8153 26.2657 27.817C26.1592 27.863 26.0523 27.908 25.9448 27.9518C25.7974 28.0117 25.6475 28.0653 25.5001 28.125C25.4667 28.1385 25.4335 28.1523 25.4005 28.1666C25.3133 28.2043 25.2274 28.2447 25.1422 28.2865C25.113 28.3008 25.0839 28.3154 25.0547 28.3301C25.0402 28.3373 25.0257 28.3447 25.0112 28.3521C24.9966 28.3594 24.9822 28.3668 24.9676 28.3743C24.9386 28.3891 24.9096 28.404 24.8808 28.419C24.8524 28.4337 24.824 28.4484 24.7955 28.4631C24.7802 28.471 24.7649 28.4789 24.7495 28.4868C24.7341 28.4947 24.7188 28.5026 24.7034 28.5105C24.688 28.5184 24.6726 28.5263 24.6572 28.5341C24.4646 28.1124 24.2735 27.7802 24.123 27.5397C23.9832 27.3164 23.8526 27.1309 23.7356 26.9433C23.5844 26.7012 23.4558 26.4556 23.3588 26.1205C23.1973 25.5627 23.2962 25.353 23.337 25.28C23.4005 25.1664 23.4976 25.0724 23.6114 25.0039C23.7811 24.9018 23.9883 24.8564 24.1775 24.8871C24.2934 24.9059 24.3887 24.9509 24.4784 25.015C24.5123 25.0391 24.5452 25.066 24.5782 25.0952C24.6396 25.1496 24.7009 25.2121 24.767 25.28C24.8689 25.3847 24.9455 25.4817 25.0135 25.5815C25.0136 25.5816 25.0137 25.5818 25.0138 25.582C25.0944 25.7004 25.1629 25.823 25.2473 25.9678C25.3017 26.061 25.3518 26.1448 25.3984 26.2208C25.4705 26.3387 25.534 26.4382 25.5918 26.5262C25.8433 26.9095 25.9861 27.0772 26.2516 27.6052C26.2834 27.6684 26.3128 27.7285 26.3398 27.7849Z" fill="#F6B79F"/>
<path d="M27.9498 27.1037C27.9484 27.1042 27.947 27.1047 27.9456 27.1053C27.9066 27.1194 27.8677 27.1338 27.8289 27.1485C27.8106 27.1553 27.7924 27.1623 27.7742 27.1693C27.7738 27.1694 27.7735 27.1696 27.773 27.1697C27.7552 27.1765 27.7374 27.1834 27.7197 27.1904C27.7015 27.1974 27.6834 27.2046 27.6653 27.2118C27.6427 27.2207 27.6201 27.2297 27.5975 27.2388C27.5372 27.2631 27.4771 27.2879 27.4172 27.3131C27.1064 27.4433 26.7997 27.5832 26.4914 27.7194C26.4377 27.7431 26.3839 27.7667 26.33 27.7902C26.3093 27.7992 26.2886 27.8082 26.2678 27.8172C26.2237 27.7421 26.1817 27.6731 26.1425 27.6105C25.8287 27.1091 25.5612 26.7984 25.3886 26.2261C25.3851 26.2146 25.3817 26.203 25.3783 26.1913C25.3743 26.1773 25.3704 26.1635 25.3666 26.1499C25.2218 25.6229 25.3168 25.4218 25.3565 25.3507C25.3877 25.2949 25.427 25.2439 25.4725 25.1983C25.5756 25.0946 25.7102 25.0189 25.8532 24.9794H25.8534C25.9666 24.9482 26.085 24.9396 26.1971 24.9578C26.3467 24.982 26.4624 25.0502 26.5755 25.1467C26.6444 25.2054 26.7124 25.2746 26.7865 25.3507C26.8023 25.3669 26.8175 25.383 26.8321 25.3989C26.8378 25.4051 26.8434 25.4112 26.8488 25.4173C27.0071 25.5928 27.1007 25.7522 27.2156 25.9503C27.2322 25.9789 27.2491 26.0082 27.2668 26.0385C27.567 26.5531 27.7358 26.7773 27.9 27.027C27.9166 27.0522 27.9331 27.0777 27.9497 27.1037H27.9498Z" fill="#F6B79F"/>
<path opacity="0.2" d="M26.252 27.8202C26.1455 27.8663 26.0386 27.9113 25.9311 27.955C25.7837 28.0149 25.6337 28.0685 25.4863 28.1283C25.7143 26.5872 24.5336 25.3841 24.2401 25.2255C23.9934 25.0922 23.7319 25.0328 23.7319 25.0328C23.6734 25.0195 23.6256 25.0115 23.5977 25.0072L24.4647 25.0182L24.48 25.0184C24.5062 25.0426 24.5345 25.0694 24.5644 25.0985C24.6884 25.2189 24.8414 25.3809 24.9997 25.5848C24.9998 25.5849 25 25.5851 25 25.5852C25.0475 25.6463 25.1483 25.7795 25.3626 26.1479C25.4245 26.2542 25.4958 26.3802 25.578 26.5295C25.5872 26.5461 25.5964 26.5628 25.6058 26.58C25.8786 27.0785 25.8514 27.0676 26.1385 27.6085C26.1792 27.6852 26.217 27.7555 26.252 27.8202Z" fill="white"/>
<path opacity="0.25" d="M27.9419 27.1021C27.9029 27.1162 27.864 27.1307 27.8251 27.1453C27.8069 27.1522 27.7887 27.1591 27.7705 27.1661C27.7701 27.1662 27.7697 27.1664 27.7693 27.1665C27.7515 27.1734 27.7338 27.1803 27.716 27.1872C27.6978 27.1943 27.6797 27.2014 27.6616 27.2086C27.6389 27.2175 27.6163 27.2265 27.5938 27.2356C27.5335 27.2599 27.4734 27.2847 27.4135 27.3099C27.3185 26.8517 27.0632 26.0774 26.3712 25.5839C26.0324 25.3423 25.6921 25.2415 25.4688 25.1951L25.8495 24.9762H25.8496C26.0305 24.9663 26.3112 24.9805 26.5718 25.1435C26.6693 25.2045 26.7355 25.2685 26.8279 25.391C26.8335 25.3985 26.8393 25.4062 26.8451 25.4141C26.8928 25.4788 26.9479 25.5588 27.0175 25.6611C27.089 25.7661 27.1532 25.8605 27.2119 25.9471C27.4432 26.2884 27.59 26.5109 27.7611 26.796C27.8152 26.8863 27.8596 26.9611 27.8963 27.0238C27.9129 27.0523 27.9281 27.0783 27.9418 27.1021L27.9419 27.1021Z" fill="white"/>
<path d="M23.5112 28.9293C23.4414 28.7523 23.3277 28.3943 23.3741 27.9383C23.4245 27.443 23.637 27.0944 23.7471 26.9371" stroke="#8B3826" stroke-width="0.277175" stroke-miterlimit="10"/>
<path d="M24.7379 28.4829C24.4197 27.9568 24.1509 27.5603 23.9616 27.2921C23.8624 27.1516 23.6782 26.8949 23.5013 26.5178C23.3356 26.1644 23.3054 25.9804 23.2944 25.8744C23.2717 25.6541 23.2429 25.3751 23.4184 25.1509C23.5986 24.9208 23.9205 24.8423 24.1715 24.8802C24.5169 24.9324 24.7261 25.2046 25.0489 25.6374C25.2889 25.9594 25.4079 26.1957 25.5852 26.5185C25.7516 26.8212 26.0003 27.2564 26.3338 27.7781" stroke="#8B3826" stroke-width="0.277175" stroke-miterlimit="10"/>
<path d="M25.058 25.8342C24.9911 25.8949 24.8611 25.9965 24.6693 26.0529C24.641 26.0612 24.3772 26.1353 24.1106 26.0529C23.7587 25.9441 23.4936 25.5907 23.4258 25.1561" stroke="#8B3826" stroke-width="0.277175" stroke-miterlimit="10"/>
<path d="M25.0039 27.439L25.4893 27.2206" stroke="#8B3826" stroke-width="0.215581" stroke-miterlimit="10" stroke-linecap="round"/>
<path d="M25.25 27.8122L25.7354 27.5938" stroke="#8B3826" stroke-width="0.215581" stroke-miterlimit="10" stroke-linecap="round"/>
<path d="M23.5299 27.2549C23.4883 27.4653 23.5741 27.6795 23.7465 27.7977C23.9021 27.9044 24.1059 27.9177 24.2787 27.8334" stroke="#8B3826" stroke-width="0.215581" stroke-miterlimit="10" stroke-linecap="round"/>
<path d="M25.3101 26.0306C25.3012 25.9988 25.2123 25.5064 25.4823 25.2006C25.7268 24.9236 26.1089 24.9229 26.3427 24.997C26.6044 25.0799 26.7539 25.28 26.842 25.4013C27.3004 26.032 27.6951 26.6641 27.9597 27.1061" stroke="#8B3826" stroke-width="0.215581" stroke-miterlimit="10"/>
<path d="M26.6797 25.2744C26.7171 25.1851 26.8134 24.9905 27.0242 24.8504C27.1008 24.7995 27.3332 24.6451 27.5553 24.7168C27.7555 24.7815 27.8509 24.9987 27.9066 25.1304C28.2136 25.8561 28.4869 26.6149 28.5914 26.9088" stroke="#8B3826" stroke-width="0.215581" stroke-miterlimit="10"/>
<path d="M25.6328 25.1047C25.6982 25.2613 25.8051 25.482 25.9763 25.7213C26.1737 25.9972 26.2829 26.1498 26.4695 26.1881C26.7907 26.2541 27.0862 25.9293 27.1301 25.8798" stroke="#8B3826" stroke-width="0.215581" stroke-miterlimit="10"/>
<path d="M4.39062 14.8494C4.41877 15.0465 4.46823 15.231 4.53654 15.404C5.96055 19.0084 15.7859 18.13 17.7276 17.9373" stroke="#2B2B2B" stroke-width="0.277175" stroke-miterlimit="10" stroke-linecap="round"/>
<path opacity="0.55" d="M17.9038 18.6429C18.0245 18.6224 18.0704 18.2998 18.0063 17.9224C17.9422 17.545 17.7924 17.2557 17.6717 17.2762C17.551 17.2967 17.5051 17.6193 17.5692 17.9967C17.6333 18.3741 17.7831 18.6634 17.9038 18.6429Z" fill="#2B2B2B"/>
</g>
<circle cx="16.002" cy="17" r="15.3352" stroke="url(#paint0_linear_9069_179658)" stroke-width="1.3335"/>
<g clip-path="url(#clip0_9069_179658)">
<path d="M46.022 0.00244141H48.035V2.03552H52.0609V4.06861H44.009V6.10169H52.0609V12.1909H48.035V14.0931H46.022V12.1909H41.9961V10.1679H50.0479V8.13477H41.9961V2.03552H46.022V0.00244141Z" fill="white"/>
<path d="M56.1472 4.02835V6.0413H60.1731V8.05426H56.1472V12.0802H54.1342V2.01539H64.199V4.02835H56.1472Z" fill="white"/>
<path d="M66.232 12.0802V2.01539H68.245V12.0802H66.232ZM74.2839 12.0802V2.01539H76.2968V12.0802H74.2839ZM76.2968 12.0802H66.232V10.0672H76.2968V12.0802ZM76.2968 4.02835H66.232V2.01539H76.2968V4.02835Z" fill="white"/>
<path d="M80.363 4.02835H82.3759V6.0413H80.363V12.0802H78.35V2.01539H80.363V4.02835ZM86.4018 2.01539H88.4148V12.0802H86.4018V6.0413H84.3889V4.02835H86.4018V2.01539ZM82.3759 6.0413H84.3889V8.05426H82.3759V6.0413Z" fill="white"/>
<path d="M90.4277 12.0802V2.01539H92.4407V12.0802H90.4277ZM98.4796 12.0802V2.01539H100.493V12.0802H98.4796ZM100.493 12.0802H90.4277V10.0672H100.493V12.0802ZM100.493 4.02835H90.4277V2.01539H100.493V4.02835Z" fill="white"/>
</g>
<path d="M113.665 4.02833H107.626V6.04129H113.665V4.02833H115.678V10.0672H113.665V8.05424H107.626V10.0672H113.665V12.0801H105.613V2.01538H113.665V4.02833Z" fill="white"/>
<path d="M119.724 10.0672H125.763V2.01538H127.776V12.0801H117.711V2.01538H119.724V10.0672Z" fill="white"/>
<path d="M131.822 4.02833V6.04129H137.861V4.02833H131.822ZM131.822 8.05424V12.0801H129.809V2.01538H139.874V8.05424H137.861V10.0672H135.848V8.05424H131.822ZM137.861 10.0672H139.874V12.0801H137.861V10.0672Z" fill="white"/>
<path d="M143.92 4.02833V12.0801H141.907V2.01538H151.972V12.0801H149.959V4.02833H143.92Z" fill="white"/>
<path d="M42.7227 23.8056V21.7927H52.7874V23.8056H48.7615V31.8574H46.7486V23.8056H42.7227Z" fill="white"/>
<path d="M56.8133 23.8056V25.8186H62.8522V23.8056H56.8133ZM56.8133 27.8315V31.8574H54.8004V21.7927H64.8651V27.8315H62.8522V29.8445H60.8392V27.8315H56.8133ZM62.8522 29.8445H64.8651V31.8574H62.8522V29.8445Z" fill="white"/>
<path d="M68.9212 23.8358V25.8085H74.94V23.8358H68.9212ZM68.9212 27.912V31.8574H66.8982V21.7927H76.963V31.8574H74.94V27.912H68.9212Z" fill="white"/>
<path d="M81.009 23.8056V29.8445H89.0608V31.8574H78.9961V21.7927H89.0608V23.8056H81.009Z" fill="white"/>
<path d="M93.0868 25.8186H97.1127V27.8315H93.0868V31.8574H91.0738V21.7927H93.0868V25.8186ZM99.1256 21.7927H101.139V23.8056H99.1256V21.7927ZM97.1127 23.8056H99.1256V25.8186H97.1127V23.8056ZM97.1127 27.8315H99.1256V29.8445H97.1127V27.8315ZM99.1256 29.8445H101.139V31.8574H99.1256V29.8445Z" fill="white"/>
<path d="M113.156 23.8056H105.054V25.8186H109.1V27.8315H105.054V29.8445H113.156V31.8574H103.091V21.7927H113.156V23.8056Z" fill="white"/>
<path d="M117.162 23.8056V25.8186H123.201V23.8056H117.162ZM117.162 27.8315V31.8574H115.149V21.7927H125.213V27.8315H123.201V29.8445H121.188V27.8315H117.162ZM123.201 29.8445H125.213V31.8574H123.201V29.8445Z" fill="white"/>
<defs>
<linearGradient id="paint0_linear_9069_179658" x1="0" y1="17" x2="32.004" y2="17" gradientUnits="userSpaceOnUse">
<stop stop-color="#00C2FF"/>
<stop offset="1" stop-color="#00F2FE"/>
</linearGradient>
<clipPath id="clip0_9069_179658">
<rect width="59" height="14" fill="white" transform="translate(42)"/>
</clipPath>
</defs>
</svg>
