<svg width="20" height="20" viewBox="0 0 20 20" fill="none" xmlns="http://www.w3.org/2000/svg">
<g clip-path="url(#clip0_9025_168607)">
<path d="M17.0581 17.061C20.9578 13.1613 20.9578 6.83867 17.0581 2.93897C13.1584 -0.960728 6.83573 -0.960729 2.93603 2.93897C-0.963669 6.83867 -0.963669 13.1613 2.93603 17.061C6.83573 20.9607 13.1584 20.9607 17.0581 17.061Z" fill="url(#paint0_linear_9025_168607)"/>
<path d="M16.8583 16.8629C20.6486 13.0726 20.6486 6.92736 16.8583 3.13708C13.068 -0.653209 6.92274 -0.653208 3.13245 3.13708C-0.657834 6.92737 -0.657834 13.0726 3.13245 16.8629C6.92274 20.6532 13.068 20.6532 16.8583 16.8629Z" fill="url(#paint1_linear_9025_168607)"/>
<path d="M9.99505 11.9695C13.8857 11.9695 17.3637 10.9014 19.6698 9.2242C19.2744 4.2267 15.094 0.294342 9.99505 0.294342C4.8961 0.294342 0.71572 4.2267 0.320312 9.2242C2.62637 10.9014 6.10403 11.9695 9.99505 11.9695Z" fill="#FFB69C"/>
<path d="M15.8665 15.8682C19.1074 12.6273 19.1074 7.37269 15.8665 4.13175C12.6255 0.890807 7.37091 0.890808 4.12997 4.13175C0.889023 7.3727 0.889023 12.6273 4.12997 15.8682C7.37091 19.1092 12.6255 19.1092 15.8665 15.8682Z" fill="url(#paint2_linear_9025_168607)"/>
<g style="mix-blend-mode:overlay" opacity="0.7">
<path d="M9.99801 1.70104C14.5813 1.70104 18.297 5.41669 18.297 9.99999C18.297 14.5833 14.5813 18.2989 9.99801 18.2989C5.41471 18.2989 1.69905 14.5833 1.69905 9.99999C1.69905 5.41669 5.41471 1.70104 9.99801 1.70104ZM9.99801 1.63089C8.86816 1.63089 7.77212 1.85218 6.74039 2.28851C5.74373 2.71022 4.84853 3.31356 4.08026 4.08225C3.312 4.85093 2.70824 5.74571 2.28653 6.74237C1.8502 7.7741 1.62891 8.87014 1.62891 9.99999C1.62891 11.1298 1.8502 12.2259 2.28653 13.2576C2.70824 14.2543 3.31158 15.1495 4.08026 15.9177C4.84895 16.6864 5.74373 17.2898 6.74039 17.7115C7.77212 18.1478 8.86816 18.3691 9.99801 18.3691C11.1279 18.3691 12.2239 18.1478 13.2556 17.7115C14.2523 17.2898 15.1471 16.6864 15.9158 15.9177C16.6844 15.1491 17.2878 14.2543 17.7095 13.2576C18.1458 12.2259 18.3671 11.1298 18.3671 9.99999C18.3671 8.87014 18.1458 7.7741 17.7095 6.74237C17.2878 5.74571 16.6844 4.85093 15.9158 4.08225C15.1471 3.31356 14.2523 2.71022 13.2556 2.28851C12.2239 1.85218 11.1279 1.63089 9.99801 1.63089Z" fill="#EDCEED"/>
</g>
<path d="M18.0284 11.2264C18.7054 6.79149 15.6591 2.64742 11.2242 1.97036C6.78923 1.29331 2.64516 4.33966 1.9681 8.77458C1.29105 13.2095 4.3374 17.3536 8.77232 18.0306C13.2072 18.7077 17.3513 15.6613 18.0284 11.2264Z" fill="#A0503A"/>
<path d="M9.99809 17.9824C14.4067 17.9824 17.9806 14.4086 17.9806 9.99998C17.9806 5.59139 14.4067 2.01752 9.99809 2.01752C5.5895 2.01752 2.01562 5.59139 2.01562 9.99998C2.01562 14.4086 5.5895 17.9824 9.99809 17.9824Z" fill="#BC6648"/>
<g style="mix-blend-mode:overlay" opacity="0.4">
<path d="M9.99861 0.364906C11.2992 0.364906 12.561 0.619603 13.7489 1.1219C14.8963 1.60708 15.9268 2.30186 16.8115 3.18662C17.6963 4.07138 18.3911 5.10186 18.8767 6.24925C19.379 7.43714 19.6337 8.69893 19.6337 9.99956C19.6337 11.3002 19.379 12.562 18.8767 13.7499C18.3915 14.8973 17.6967 15.9277 16.8115 16.8125C15.9268 17.6973 14.8963 18.392 13.7489 18.8772C12.561 19.3795 11.2992 19.6342 9.99861 19.6342C8.69798 19.6342 7.43618 19.3795 6.24829 18.8772C5.1009 18.392 4.07042 17.6973 3.18566 16.8125C2.3009 15.9277 1.60612 14.8973 1.12053 13.7499C0.61823 12.562 0.363532 11.3002 0.363532 9.99956C0.363532 8.69893 0.61823 7.43714 1.12053 6.24925C1.6057 5.10186 2.30048 4.07138 3.18566 3.18662C4.07042 2.30186 5.1009 1.60708 6.24829 1.1219C7.43618 0.619603 8.69798 0.364906 9.99861 0.364906ZM9.99861 0.29476C4.63827 0.294342 0.292969 4.63964 0.292969 9.99998C0.292969 15.3603 4.63827 19.7056 9.99861 19.7056C15.3589 19.7056 19.7042 15.3603 19.7042 9.99998C19.7042 4.63964 15.3589 0.294342 9.99861 0.294342V0.29476Z" fill="#EDCEED"/>
</g>
<g style="mix-blend-mode:screen" opacity="0.2">
<path d="M17.958 10.6042C17.973 10.4046 17.9806 10.2033 17.9806 9.99998C17.9806 5.59163 14.4064 2.01752 9.99809 2.01752C5.58974 2.01752 2.01562 5.59163 2.01562 9.99998C2.01562 10.2033 2.02356 10.405 2.03817 10.6042C4.20602 11.6768 6.97721 12.3211 9.99809 12.3211C13.019 12.3211 15.7902 11.6772 17.958 10.6042Z" fill="url(#paint3_linear_9025_168607)"/>
</g>
<path d="M12.3086 7.51358C12.3086 8.04427 12.1779 8.48936 11.9165 8.84886C11.6551 9.20836 11.286 9.45721 10.8092 9.59583V9.64218C11.3399 9.72694 11.7503 9.93446 12.0405 10.2651C12.3307 10.5958 12.476 11.0455 12.476 11.6146C12.476 12.3912 12.2347 13.0104 11.7524 13.4718C11.2697 13.9332 10.6096 14.1641 9.77121 14.1641C9.02507 14.1641 8.39877 14.0313 7.89104 13.7662V12.3591C8.1449 12.5127 8.41964 12.6338 8.71568 12.7223C9.01171 12.8109 9.29605 12.8551 9.56912 12.8551C10.0151 12.8551 10.3516 12.7524 10.5783 12.5466C10.805 12.3411 10.9186 12.015 10.9186 11.5691C10.9186 10.7269 10.4013 10.3061 9.36703 10.3061H8.88854V9.13529H9.34407C9.80169 9.13529 10.1524 9.02757 10.3967 8.81254C10.6409 8.59709 10.7629 8.276 10.7629 7.84928C10.7629 7.51483 10.6852 7.2618 10.5295 7.09103C10.3737 6.91984 10.1537 6.83425 9.86891 6.83425C9.43426 6.83425 9.01171 7.0188 8.60002 7.3879L7.89062 6.3499C8.45973 5.7808 9.17664 5.49646 10.0418 5.49646C10.7528 5.49646 11.3086 5.676 11.7086 6.0355C12.1086 6.395 12.3082 6.88811 12.3082 7.51483L12.3086 7.51358Z" fill="url(#paint4_linear_9025_168607)"/>
<g opacity="0.6">
<path d="M10.0437 5.4952C10.7547 5.4952 11.3105 5.67474 11.7105 6.03424C12.1105 6.39373 12.3101 6.88685 12.3101 7.51357C12.3101 8.04426 12.1794 8.48935 11.918 8.84885C11.6566 9.20835 11.2875 9.4572 10.8107 9.59582V9.64217C11.3414 9.72693 11.7518 9.93444 12.042 10.2651C12.3322 10.5958 12.4775 11.0455 12.4775 11.6146C12.4775 12.3912 12.2362 13.0104 11.7539 13.4718C11.2712 13.9332 10.6111 14.1641 9.7727 14.1641C9.02656 14.1641 8.40026 14.0313 7.89253 13.7662V12.3591C8.14639 12.5127 8.42113 12.6338 8.71717 12.7223C9.0132 12.8109 9.29754 12.8551 9.57061 12.8551C10.0165 12.8551 10.3531 12.7524 10.5798 12.5466C10.8065 12.3411 10.9201 12.015 10.9201 11.5691C10.9201 10.7269 10.4028 10.3061 9.36852 10.3061H8.89003V9.13528H9.34556C9.80318 9.13528 10.1539 9.02756 10.3982 8.81252C10.6424 8.59708 10.7643 8.27599 10.7643 7.84927C10.7643 7.51482 10.6867 7.26179 10.5309 7.09102C10.3752 6.91983 10.1552 6.83424 9.8704 6.83424C9.43575 6.83424 9.0132 7.01879 8.60151 7.38789L7.89211 6.34989C8.46122 5.78079 9.17813 5.49645 10.0433 5.49645L10.0437 5.4952ZM10.0437 5.28643C9.1251 5.28643 8.35182 5.59415 7.74472 6.20125C7.67374 6.27223 7.6633 6.38371 7.72009 6.4668L8.42948 7.5048C8.4633 7.55449 8.51717 7.58705 8.57687 7.59415C8.58522 7.59499 8.59358 7.59582 8.60193 7.59582C8.65328 7.59582 8.70297 7.57703 8.74138 7.54238C9.11132 7.21044 9.49128 7.04217 9.87082 7.04217C10.0959 7.04217 10.2612 7.10396 10.3769 7.23048C10.4959 7.36117 10.556 7.5691 10.556 7.84843C10.556 8.21586 10.4595 8.47975 10.2604 8.65511C10.0566 8.83465 9.7489 8.92568 9.34598 8.92568H8.89044C8.7752 8.92568 8.68168 9.0192 8.68168 9.13444V10.3052C8.68168 10.4205 8.7752 10.514 8.89044 10.514H9.36894C10.5723 10.514 10.7117 11.1157 10.7117 11.5683C10.7117 11.9507 10.6203 12.2276 10.4399 12.3912C10.2537 12.5599 9.96143 12.6455 9.57103 12.6455C9.31925 12.6455 9.05245 12.6038 8.77729 12.5215C8.49963 12.4384 8.23825 12.3236 8.00109 12.1795C7.96769 12.1595 7.93053 12.1495 7.89295 12.1495C7.85746 12.1495 7.82239 12.1582 7.79065 12.1762C7.7251 12.2134 7.68418 12.2827 7.68418 12.3582V13.7653C7.68418 13.843 7.72719 13.9144 7.79608 13.9503C8.33136 14.2301 8.9965 14.372 9.7727 14.372C10.6625 14.372 11.3773 14.1198 11.898 13.6221C12.4211 13.1219 12.6863 12.4463 12.6863 11.6142C12.6863 10.9958 12.5222 10.4956 12.199 10.1269C11.9877 9.88601 11.7184 9.70313 11.3952 9.57996C11.6729 9.4263 11.9042 9.22296 12.0871 8.97161C12.374 8.57745 12.5193 8.08685 12.5193 7.51357C12.5193 6.82797 12.2942 6.27808 11.8504 5.87891C11.4128 5.48559 10.8053 5.28601 10.0441 5.28601L10.0437 5.28643Z" fill="#8C4F30"/>
</g>
<path d="M9.85135 14.1632C9.14446 14.1632 8.54028 14.0405 8.05469 13.7979V12.5862C8.27849 12.709 8.51899 12.8096 8.77202 12.8847C9.07431 12.9749 9.36951 13.0209 9.64926 13.0209C10.1144 13.0209 10.4731 12.9098 10.7144 12.6906C10.9582 12.4693 11.0822 12.1198 11.0822 11.6513C11.0822 10.7578 10.5323 10.3048 9.44717 10.3048H9.05218V9.30103H9.42421C9.90062 9.30103 10.2731 9.18537 10.5319 8.9574C10.7937 8.7265 10.9265 8.38162 10.9265 7.93151C10.9265 7.57702 10.8405 7.30312 10.6714 7.1169C10.4998 6.92859 10.2568 6.83297 9.94947 6.83297C9.52108 6.83297 9.1002 7.00542 8.69686 7.34571L8.08016 6.44299C8.62295 5.92483 9.3098 5.6622 10.1227 5.6622C10.8092 5.6622 11.3511 5.83631 11.7336 6.17995C12.1131 6.52149 12.3056 6.99832 12.3056 7.59707C12.3056 8.10729 12.1791 8.53986 11.9294 8.88308C11.6802 9.22546 11.3227 9.46638 10.8664 9.59874L10.8063 9.61627V9.79623L10.8764 9.8075C11.3845 9.88851 11.7825 10.0889 12.058 10.4029C12.3332 10.7165 12.4726 11.152 12.4726 11.6973C12.4726 12.4468 12.238 13.0509 11.7745 13.4939C11.3102 13.9378 10.663 14.1628 9.85135 14.1628V14.1632Z" fill="url(#paint5_linear_9025_168607)"/>
<path opacity="0.6" d="M12.4696 11.7132C12.4704 11.6802 12.4717 11.6476 12.4717 11.6142C12.4717 11.0451 12.3264 10.5954 12.0362 10.2647C11.746 9.93403 11.3356 9.72651 10.8049 9.64175V9.59541C11.2817 9.4572 11.6508 9.20793 11.9122 8.84844C12.1736 8.48894 12.3043 8.04384 12.3043 7.51315C12.3043 6.88643 12.1043 6.39332 11.7047 6.03382C11.3047 5.67432 10.7493 5.49478 10.0379 5.49478C9.17273 5.49478 8.45582 5.77954 7.88672 6.34823L8.59611 7.38622C9.00739 7.01712 9.43035 6.83257 9.86501 6.83257C10.1493 6.83257 10.3698 6.91816 10.5255 7.08935C10.6813 7.26054 10.759 7.51315 10.759 7.8476C10.759 8.27432 10.637 8.59541 10.3928 8.81086C10.1485 9.02631 9.79778 9.13361 9.34016 9.13361H8.88463V10.3044H9.36313C10.3974 10.3044 10.9147 10.7253 10.9147 11.5674C10.9147 11.6743 10.908 11.7737 10.8951 11.8668C11.4308 11.8355 11.9564 11.7837 12.47 11.7127L12.4696 11.7132Z" fill="#FFB69C"/>
</g>
<defs>
<linearGradient id="paint0_linear_9025_168607" x1="9.99716" y1="-1.60366" x2="9.99716" y2="26.775" gradientUnits="userSpaceOnUse">
<stop stop-color="#EDAA6E"/>
<stop offset="0.61" stop-color="#C74E1E"/>
<stop offset="0.71" stop-color="#D2552F"/>
<stop offset="0.9" stop-color="#E86451"/>
</linearGradient>
<linearGradient id="paint1_linear_9025_168607" x1="9.99547" y1="0.013459" x2="9.99547" y2="18.7859" gradientUnits="userSpaceOnUse">
<stop offset="0.49" stop-color="#EDA073"/>
<stop offset="0.78" stop-color="#ED9E71"/>
<stop offset="0.89" stop-color="#ED996A"/>
<stop offset="0.97" stop-color="#ED915E"/>
<stop offset="1" stop-color="#ED8C57"/>
</linearGradient>
<linearGradient id="paint2_linear_9025_168607" x1="9.99831" y1="3.17797" x2="9.99831" y2="19.1554" gradientUnits="userSpaceOnUse">
<stop stop-color="#A7695A"/>
<stop offset="0.24" stop-color="#A86A5A"/>
<stop offset="0.32" stop-color="#AF705E"/>
<stop offset="0.38" stop-color="#BB7B64"/>
<stop offset="0.43" stop-color="#CC8B6D"/>
<stop offset="0.47" stop-color="#E29E79"/>
<stop offset="0.49" stop-color="#EDA97F"/>
<stop offset="0.94" stop-color="#EDBD8D"/>
</linearGradient>
<linearGradient id="paint3_linear_9025_168607" x1="9.99809" y1="12.5829" x2="9.99809" y2="0.47472" gradientUnits="userSpaceOnUse">
<stop stop-color="#ED635C"/>
<stop offset="1" stop-color="#ED9C86"/>
</linearGradient>
<linearGradient id="paint4_linear_9025_168607" x1="10.1833" y1="18.6722" x2="10.1833" y2="1.61588" gradientUnits="userSpaceOnUse">
<stop stop-color="#FFCC97"/>
<stop offset="0.19" stop-color="#FFCF9C"/>
<stop offset="0.42" stop-color="#FFDAAB"/>
<stop offset="0.51" stop-color="#FFE0B3"/>
</linearGradient>
<linearGradient id="paint5_linear_9025_168607" x1="10.2639" y1="18.5854" x2="10.2639" y2="1.85761" gradientUnits="userSpaceOnUse">
<stop stop-color="#ED8C57"/>
<stop offset="0.19" stop-color="#ED8F5C"/>
<stop offset="0.43" stop-color="#ED9A6B"/>
<stop offset="0.51" stop-color="#EDA073"/>
</linearGradient>
<clipPath id="clip0_9025_168607">
<rect width="20" height="20" fill="white"/>
</clipPath>
</defs>
</svg>
