<svg width="20" height="20" viewBox="0 0 20 20" fill="none" xmlns="http://www.w3.org/2000/svg">
<g clip-path="url(#clip0_9025_168631)">
<path d="M17.062 17.061C20.9617 13.1613 20.9617 6.83867 17.062 2.93897C13.1623 -0.960728 6.83964 -0.960729 2.93994 2.93897C-0.959763 6.83867 -0.959763 13.1613 2.93994 17.061C6.83964 20.9607 13.1623 20.9607 17.062 17.061Z" fill="url(#paint0_linear_9025_168631)"/>
<path style="mix-blend-mode:screen" opacity="0.4" d="M2.10938 3.88057L5.04716 6.83756L7.84633 4.41543L5.38662 1.14236C4.10603 1.81084 2.98871 2.74821 2.10938 3.88057Z" fill="url(#paint1_linear_9025_168631)"/>
<path d="M16.8622 16.8629C20.6525 13.0726 20.6525 6.92737 16.8622 3.13708C13.0719 -0.653208 6.92664 -0.653207 3.13636 3.13708C-0.653928 6.92737 -0.653928 13.0726 3.13636 16.8629C6.92664 20.6532 13.0719 20.6532 16.8622 16.8629Z" fill="url(#paint2_linear_9025_168631)"/>
<path style="mix-blend-mode:overlay" opacity="0.4" d="M10.0029 11.9695C13.8935 11.9695 17.3715 10.9014 19.6776 9.2242C19.2822 4.2267 15.1018 0.294342 10.0029 0.294342C4.90391 0.294342 0.723532 4.2267 0.328125 9.2242C2.63418 10.9014 6.11184 11.9695 10.0029 11.9695Z" fill="url(#paint3_linear_9025_168631)"/>
<path d="M15.8704 15.8682C19.1113 12.6273 19.1113 7.3727 15.8704 4.13175C12.6294 0.890808 7.37482 0.890809 4.13387 4.13175C0.892929 7.3727 0.892929 12.6273 4.13387 15.8682C7.37482 19.1092 12.6294 19.1092 15.8704 15.8682Z" fill="url(#paint4_linear_9025_168631)"/>
<g style="mix-blend-mode:overlay" opacity="0.9">
<path d="M10.0019 1.70104C14.5852 1.70104 18.3009 5.41669 18.3009 9.99999C18.3009 14.5833 14.5852 18.2989 10.0019 18.2989C5.41862 18.2989 1.70296 14.5833 1.70296 9.99999C1.70296 5.41669 5.41862 1.70104 10.0019 1.70104ZM10.0019 1.63089C8.87206 1.63089 7.77603 1.85218 6.74429 2.28851C5.74763 2.71022 4.85244 3.31356 4.08417 4.08225C3.31548 4.85093 2.71214 5.74571 2.29043 6.74237C1.85411 7.7741 1.63281 8.87014 1.63281 9.99999C1.63281 11.1298 1.85411 12.2259 2.29043 13.2576C2.71214 14.2543 3.31548 15.1495 4.08417 15.9177C4.85285 16.6864 5.74763 17.2898 6.74429 17.7115C7.77603 18.1478 8.87206 18.3691 10.0019 18.3691C11.1318 18.3691 12.2278 18.1478 13.2595 17.7115C14.2562 17.2898 15.1514 16.6864 15.9197 15.9177C16.6883 15.1491 17.2917 14.2543 17.7134 13.2576C18.1497 12.2259 18.371 11.1298 18.371 9.99999C18.371 8.87014 18.1497 7.7741 17.7134 6.74237C17.2917 5.74571 16.6883 4.85093 15.9197 4.08225C15.151 3.31356 14.2562 2.71022 13.2595 2.28851C12.2278 1.85218 11.1318 1.63089 10.0019 1.63089Z" fill="#CACAD6"/>
</g>
<path d="M15.7436 15.7439C18.9159 12.5717 18.9159 7.42835 15.7436 4.25605C12.5713 1.08375 7.42797 1.08375 4.25567 4.25605C1.08337 7.42835 1.08337 12.5717 4.25567 15.744C7.42797 18.9162 12.5713 18.9162 15.7436 15.7439Z" fill="url(#paint5_linear_9025_168631)"/>
<path d="M10.002 17.9824C14.4106 17.9824 17.9845 14.4086 17.9845 9.99998C17.9845 5.59139 14.4106 2.01752 10.002 2.01752C5.5934 2.01752 2.01953 5.59139 2.01953 9.99998C2.01953 14.4086 5.5934 17.9824 10.002 17.9824Z" fill="url(#paint6_linear_9025_168631)"/>
<g style="mix-blend-mode:overlay" opacity="0.8">
<path d="M9.9986 0.364906C11.2992 0.364906 12.561 0.619603 13.7489 1.1219C14.8963 1.60708 15.9268 2.30186 16.8115 3.18662C17.6963 4.07138 18.3911 5.10186 18.8767 6.24925C19.379 7.43714 19.6337 8.69893 19.6337 9.99956C19.6337 11.3002 19.379 12.562 18.8767 13.7499C18.3915 14.8973 17.6967 15.9277 16.8115 16.8125C15.9268 17.6973 14.8963 18.392 13.7489 18.8772C12.561 19.3795 11.2992 19.6342 9.9986 19.6342C8.69798 19.6342 7.43618 19.3795 6.24829 18.8772C5.1009 18.392 4.07042 17.6973 3.18566 16.8125C2.3009 15.9277 1.60612 14.8973 1.12053 13.7499C0.61823 12.562 0.363532 11.3002 0.363532 9.99956C0.363532 8.69893 0.61823 7.43714 1.12053 6.24925C1.6057 5.10186 2.30048 4.07138 3.18566 3.18662C4.07042 2.30186 5.1009 1.60708 6.24829 1.1219C7.43618 0.619603 8.69798 0.364906 9.9986 0.364906ZM9.9986 0.29476C4.63827 0.294342 0.292969 4.63964 0.292969 9.99998C0.292969 15.3603 4.63827 19.7056 9.9986 19.7056C15.3589 19.7056 19.7042 15.3603 19.7042 9.99998C19.7042 4.63964 15.3589 0.294342 9.9986 0.294342V0.29476Z" fill="#CACAD6"/>
</g>
<g style="mix-blend-mode:screen" opacity="0.2">
<path d="M17.9619 10.6042C17.9769 10.4046 17.9845 10.2034 17.9845 10C17.9845 5.59166 14.4108 2.01755 10.002 2.01755C5.59323 2.01755 2.01953 5.59166 2.01953 10C2.01953 10.2034 2.02746 10.405 2.04208 10.6042C4.20993 11.6768 6.98112 12.3211 10.002 12.3211C13.0229 12.3211 15.7941 11.6773 17.9619 10.6042Z" fill="url(#paint7_linear_9025_168631)"/>
</g>
<path d="M12.5477 14.42H7.69345V13.1633L9.30347 10.8848C9.74522 10.2572 10.0484 9.79207 10.2137 9.48852C10.3786 9.18497 10.5005 8.89436 10.579 8.61545C10.6575 8.33695 10.6968 8.04885 10.6968 7.75157C10.6968 7.40501 10.6195 7.14489 10.4646 6.97119C10.3097 6.79791 10.1085 6.71107 9.86088 6.71107C9.64209 6.71107 9.43792 6.7691 9.24794 6.88434C9.05796 7 8.82706 7.20835 8.55441 7.50981L7.61328 6.519C8.04668 6.02798 8.44919 5.69144 8.8208 5.50981C9.1924 5.32818 9.59491 5.23758 10.0283 5.23758C10.759 5.23758 11.3294 5.45219 11.7402 5.88142C12.1507 6.31065 12.3561 6.90731 12.3561 7.67098C12.3561 8.01754 12.3189 8.34572 12.2446 8.65553C12.1703 8.96493 12.058 9.27558 11.9072 9.58747C11.7565 9.89896 11.5678 10.223 11.3406 10.5595C11.1135 10.896 10.5273 11.6668 9.58238 12.8718V12.9215H12.5481V14.42H12.5477Z" fill="url(#paint8_linear_9025_168631)"/>
<path d="M10.0275 5.238C10.7582 5.238 11.3286 5.45261 11.7394 5.88184C12.1498 6.31107 12.3553 6.90773 12.3553 7.6714C12.3553 8.01796 12.3181 8.34614 12.2438 8.65595C12.1695 8.96535 12.0572 9.276 11.9064 9.58789C11.7557 9.89938 11.567 10.2234 11.3398 10.5599C11.1127 10.8965 10.5265 11.6672 9.58158 12.8722V12.9219H12.5473V14.4205H7.69306V13.1637L9.30308 10.8852C9.74484 10.2576 10.048 9.79249 10.2133 9.48894C10.3782 9.18539 10.5002 8.89478 10.5787 8.61587C10.6572 8.33737 10.6964 8.04927 10.6964 7.75199C10.6964 7.40543 10.6192 7.14531 10.4643 6.97161C10.3093 6.79833 10.1081 6.71149 9.86049 6.71149C9.6417 6.71149 9.43753 6.76952 9.24755 6.88476C9.05757 7.00042 8.82667 7.20877 8.55402 7.51023L7.61289 6.51942C8.0463 6.0284 8.4488 5.69186 8.82041 5.51023C9.19202 5.32861 9.59452 5.238 10.0279 5.238H10.0275ZM10.0275 4.98748C9.55778 4.98748 9.11436 5.08769 8.71018 5.28518C8.30517 5.48351 7.88471 5.83299 7.425 6.35366L7.27344 6.52568L7.43127 6.69186L8.37239 7.68268L8.55861 7.8785L8.73983 7.67808C8.99494 7.39625 9.20955 7.20126 9.37782 7.09854C9.52897 7.00668 9.68722 6.96159 9.86049 6.96159C10.0338 6.96159 10.1699 7.01754 10.2772 7.13779C10.3891 7.26305 10.4459 7.46932 10.4459 7.75115C10.4459 8.03299 10.4096 8.29144 10.3377 8.54698C10.2647 8.80627 10.149 9.08226 9.99369 9.36827C9.83377 9.66222 9.53273 10.1236 9.09891 10.7399L7.4893 13.018L7.44337 13.0831V14.6701H12.5482H12.7987V12.6706H10.058C10.8513 11.6547 11.3402 11.0079 11.5486 10.699C11.7812 10.3541 11.9778 10.0167 12.1331 9.69604C12.291 9.36952 12.4104 9.03925 12.4885 8.71357C12.567 8.38623 12.6066 8.03549 12.6066 7.67057C12.6066 6.84385 12.3762 6.18372 11.921 5.70815C11.463 5.22965 10.8263 4.98706 10.0279 4.98706L10.0275 4.98748Z" fill="url(#paint9_linear_9025_168631)"/>
<path d="M7.77708 14.3365V13.1895L9.37166 10.9328C9.81299 10.3056 10.1211 9.83338 10.2869 9.52816C10.4543 9.22044 10.5796 8.92107 10.6593 8.63798C10.7395 8.35322 10.78 8.05509 10.78 7.75155C10.78 7.38537 10.6948 7.10395 10.5266 6.91564C10.3558 6.72441 10.132 6.62754 9.86059 6.62754C9.62761 6.62754 9.40673 6.69017 9.20422 6.81292C9.02301 6.92357 8.80422 7.11647 8.55287 7.38704L7.72656 6.51689C8.13157 6.06679 8.51153 5.75322 8.85725 5.58453C9.2155 5.40958 9.60924 5.32065 10.028 5.32065C10.7316 5.32065 11.2873 5.52858 11.6798 5.9386C12.0731 6.34988 12.2727 6.93234 12.2727 7.67013C12.2727 8.00875 12.236 8.33359 12.1637 8.63505C12.0911 8.93735 11.9796 9.24507 11.8322 9.54988C11.684 9.85635 11.4952 10.1799 11.2714 10.5115C11.0472 10.8438 10.4568 11.62 9.51654 12.8192L9.49859 12.8417V13.0037H12.4644V14.3353H7.77708V14.3365Z" fill="url(#paint10_linear_9025_168631)"/>
<path d="M10.0283 5.36324C10.7198 5.36324 11.2655 5.56699 11.6496 5.96867C12.0354 6.37201 12.2308 6.94487 12.2308 7.67138C12.2308 8.00666 12.1945 8.32816 12.1227 8.6267C12.0509 8.92608 11.9402 9.23088 11.7941 9.53317C11.6467 9.83798 11.4592 10.1595 11.2362 10.4898C11.0129 10.8213 10.4229 11.5966 9.48301 12.795L9.45629 12.8292V13.0472H12.4221V14.2952H7.81829V13.2033L9.40535 10.957C9.84752 10.329 10.1565 9.8551 10.3231 9.54862C10.4918 9.23839 10.6183 8.93568 10.6989 8.64967C10.7799 8.36115 10.8212 8.05927 10.8212 7.75196C10.8212 7.37493 10.7323 7.08474 10.5573 6.8885C10.3786 6.68808 10.144 6.58662 9.86005 6.58662C9.61913 6.58662 9.39115 6.65092 9.18197 6.77827C9.00201 6.88766 8.79533 7.06804 8.55232 7.32733L7.78322 6.51773C8.17487 6.08725 8.54188 5.78662 8.87508 5.62336C9.22748 5.45092 9.61537 5.36365 10.0275 5.36365L10.0283 5.36324ZM10.0283 5.23798C9.59491 5.23798 9.1924 5.329 8.8208 5.51021C8.44919 5.69184 8.04668 6.02837 7.61328 6.5194L8.55441 7.51021C8.82706 7.20875 9.05796 7.0004 9.24794 6.88474C9.43792 6.76908 9.64209 6.71146 9.86088 6.71146C10.1085 6.71146 10.3097 6.79831 10.4646 6.97159C10.6195 7.14487 10.6968 7.40499 10.6968 7.75196C10.6968 8.04925 10.6575 8.33693 10.579 8.61585C10.5005 8.89434 10.3786 9.18537 10.2137 9.48892C10.0484 9.79246 9.74522 10.2576 9.30347 10.8852L7.69345 13.1637V14.4204H12.5477V12.9223H9.58197V12.8726C10.5273 11.6672 11.1135 10.8964 11.3402 10.5603C11.5674 10.2238 11.7561 9.89977 11.9068 9.58829C12.0575 9.27681 12.1699 8.96616 12.2442 8.65635C12.3185 8.34654 12.3557 8.01835 12.3557 7.6718C12.3557 6.90812 12.1502 6.31188 11.7398 5.88223C11.3289 5.45301 10.7586 5.23839 10.0279 5.23839L10.0283 5.23798Z" fill="#E9E4EF"/>
<path d="M7.81922 14.4204V13.2793L9.41379 11.033C9.85513 10.4087 10.1633 9.9386 10.329 9.63505C10.4965 9.329 10.6217 9.03046 10.7015 8.74862C10.7816 8.46512 10.8221 8.16825 10.8221 7.86637C10.8221 7.50186 10.737 7.22169 10.5687 7.03422C10.3979 6.84424 10.1741 6.74779 9.90314 6.74779C9.67016 6.74779 9.44928 6.81 9.24719 6.93234C9.06556 7.04215 8.84678 7.23464 8.59584 7.50437L7.76953 6.63839C8.17454 6.1908 8.5545 5.8789 8.8998 5.71063C9.25805 5.53652 9.6522 5.448 10.0706 5.448C10.7741 5.448 11.3299 5.6551 11.7223 6.06345C12.1157 6.47263 12.3153 7.05259 12.3153 7.78662C12.3153 8.12357 12.2785 8.44675 12.2063 8.74695C12.1336 9.048 12.0221 9.35405 11.8748 9.6576C11.7265 9.9624 11.5378 10.2847 11.314 10.615C11.0902 10.9453 10.4998 11.7181 9.55909 12.9119L9.54114 12.9344V13.0543H12.5487V14.4209H7.81922V14.4204Z" fill="url(#paint11_linear_9025_168631)"/>
<path style="mix-blend-mode:overlay" opacity="0.3" d="M11.9072 9.58747C12.058 9.27599 12.1703 8.96535 12.2446 8.65553C12.3189 8.34572 12.3561 8.01754 12.3561 7.67098C12.3561 6.90731 12.1507 6.31107 11.7402 5.88142C11.3294 5.45219 10.759 5.23758 10.0283 5.23758C9.59491 5.23758 9.1924 5.3286 8.8208 5.50981C8.44919 5.69144 8.04668 6.02798 7.61328 6.519L8.55441 7.50981C8.82706 7.20835 9.05796 7 9.24794 6.88434C9.43792 6.76869 9.64209 6.71107 9.86088 6.71107C10.1085 6.71107 10.3097 6.79791 10.4646 6.97119C10.6195 7.14447 10.6968 7.40459 10.6968 7.75157C10.6968 8.04885 10.6575 8.33654 10.579 8.61545C10.5005 8.89395 10.3786 9.18497 10.2137 9.48852C10.0484 9.79207 9.74522 10.2572 9.30347 10.8848L8.61579 11.858C9.07048 11.8881 9.5327 11.9035 10.0008 11.9035C10.1139 11.9035 10.2266 11.9023 10.339 11.9006C10.8479 11.2418 11.182 10.7946 11.3402 10.5595C11.5674 10.223 11.7561 9.89896 11.9068 9.58747H11.9072Z" fill="url(#paint12_linear_9025_168631)"/>
</g>
<defs>
<linearGradient id="paint0_linear_9025_168631" x1="10.0011" y1="-1.4784" x2="10.0011" y2="25.4176" gradientUnits="userSpaceOnUse">
<stop stop-color="#C9C9D5"/>
<stop offset="0.62" stop-color="#9595A1"/>
<stop offset="0.73" stop-color="#9595A1"/>
<stop offset="1" stop-color="#9E9EAA"/>
</linearGradient>
<linearGradient id="paint1_linear_9025_168631" x1="4.97785" y1="0.680987" x2="4.97785" y2="7.80124" gradientUnits="userSpaceOnUse">
<stop stop-color="#C9C9D5"/>
<stop offset="0.59" stop-color="#9595A1"/>
<stop offset="0.71" stop-color="#98959F"/>
<stop offset="0.8" stop-color="#A1959B"/>
<stop offset="0.89" stop-color="#B19595"/>
<stop offset="0.96" stop-color="#C8958B"/>
<stop offset="0.99" stop-color="#D29588"/>
</linearGradient>
<linearGradient id="paint2_linear_9025_168631" x1="9.99938" y1="0.0134597" x2="9.99938" y2="19.97" gradientUnits="userSpaceOnUse">
<stop offset="0.46" stop-color="#CACAD6"/>
<stop offset="0.76" stop-color="#C8C8D4"/>
<stop offset="0.87" stop-color="#C1C1CD"/>
<stop offset="0.95" stop-color="#B5B5C1"/>
<stop offset="1" stop-color="#A9A9B5"/>
</linearGradient>
<linearGradient id="paint3_linear_9025_168631" x1="10.0029" y1="0.12524" x2="10.0029" y2="11.9691" gradientUnits="userSpaceOnUse">
<stop offset="0.02" stop-color="#CACAD6"/>
<stop offset="0.98" stop-color="#CACAD6"/>
</linearGradient>
<linearGradient id="paint4_linear_9025_168631" x1="10.0022" y1="3.17797" x2="10.0022" y2="19.1554" gradientUnits="userSpaceOnUse">
<stop stop-color="#7E7E8A"/>
<stop offset="0.23" stop-color="#7F7F8B"/>
<stop offset="0.31" stop-color="#868692"/>
<stop offset="0.37" stop-color="#92929E"/>
<stop offset="0.42" stop-color="#A3A3AF"/>
<stop offset="0.46" stop-color="#B9B9C5"/>
<stop offset="0.49" stop-color="#CACAD6"/>
<stop offset="0.93" stop-color="#DEDEEA"/>
</linearGradient>
<linearGradient id="paint5_linear_9025_168631" x1="9.99972" y1="2.25563" x2="9.99972" y2="17.8945" gradientUnits="userSpaceOnUse">
<stop stop-color="#9999A5"/>
<stop offset="0.39" stop-color="#9595A1"/>
<stop offset="0.7" stop-color="#8B8B97"/>
<stop offset="0.98" stop-color="#7B7B87"/>
<stop offset="1" stop-color="#7A7A86"/>
</linearGradient>
<linearGradient id="paint6_linear_9025_168631" x1="10.002" y1="18.3879" x2="10.002" y2="-0.373297" gradientUnits="userSpaceOnUse">
<stop stop-color="#9999A5"/>
<stop offset="1" stop-color="#BEBECA"/>
</linearGradient>
<linearGradient id="paint7_linear_9025_168631" x1="0.016191" y1="12.5829" x2="0.0579447" y2="0.47475" gradientUnits="userSpaceOnUse">
<stop stop-color="#9999A5"/>
<stop offset="1" stop-color="#BEBECA"/>
</linearGradient>
<linearGradient id="paint8_linear_9025_168631" x1="10.0805" y1="-0.324425" x2="10.0805" y2="18.8401" gradientUnits="userSpaceOnUse">
<stop offset="0.27" stop-color="#F5F5F5"/>
<stop offset="0.44" stop-color="#E7E7E9"/>
<stop offset="0.78" stop-color="#C3C3CB"/>
<stop offset="1" stop-color="#A9A9B5"/>
</linearGradient>
<linearGradient id="paint9_linear_9025_168631" x1="10.0354" y1="4.98748" x2="10.0354" y2="14.6706" gradientUnits="userSpaceOnUse">
<stop stop-color="#B5B5C1"/>
<stop offset="1" stop-color="#81818D"/>
</linearGradient>
<linearGradient id="paint10_linear_9025_168631" x1="10.0952" y1="-0.139477" x2="10.0952" y2="18.676" gradientUnits="userSpaceOnUse">
<stop stop-color="#F5F5F5"/>
<stop offset="0.24" stop-color="#E7E7E9"/>
<stop offset="0.7" stop-color="#C3C3CB"/>
<stop offset="1" stop-color="#A9A9B5"/>
</linearGradient>
<linearGradient id="paint11_linear_9025_168631" x1="10.1587" y1="0.829209" x2="10.1587" y2="18.5875" gradientUnits="userSpaceOnUse">
<stop offset="0.51" stop-color="#CACAD6"/>
<stop offset="0.61" stop-color="#C0C0CC"/>
<stop offset="0.83" stop-color="#AFAFBB"/>
<stop offset="1" stop-color="#A9A9B5"/>
</linearGradient>
<linearGradient id="paint12_linear_9025_168631" x1="9.98447" y1="1.80752" x2="9.98447" y2="14.9992" gradientUnits="userSpaceOnUse">
<stop offset="0.02" stop-color="#CACAD6"/>
<stop offset="0.98" stop-color="#CACAD6"/>
</linearGradient>
<clipPath id="clip0_9025_168631">
<rect width="20" height="20" fill="white"/>
</clipPath>
</defs>
</svg>
