<svg width="20" height="20" viewBox="0 0 20 20" fill="none" xmlns="http://www.w3.org/2000/svg">
<g clip-path="url(#clip0_9025_168656)">
<path d="M17.0581 17.061C20.9578 13.1613 20.9578 6.83868 17.0581 2.93899C13.1584 -0.960715 6.83573 -0.960714 2.93603 2.93899C-0.963669 6.83868 -0.96367 13.1613 2.93603 17.061C6.83573 20.9607 13.1584 20.9607 17.0581 17.061Z" fill="url(#paint0_linear_9025_168656)"/>
<path d="M16.8622 16.8629C20.6525 13.0726 20.6525 6.92738 16.8622 3.1371C13.0719 -0.653192 6.92664 -0.653192 3.13636 3.13709C-0.653928 6.92738 -0.653928 13.0726 3.13636 16.8629C6.92665 20.6532 13.0719 20.6532 16.8622 16.8629Z" fill="url(#paint1_linear_9025_168656)"/>
<path d="M9.99505 11.9697C13.8857 11.9697 17.3637 10.9016 19.6698 9.22438C19.2744 4.22688 15.094 0.294525 9.99505 0.294525C4.8961 0.294525 0.71572 4.22688 0.320312 9.22438C2.62637 10.9016 6.10403 11.9697 9.99505 11.9697Z" fill="url(#paint2_linear_9025_168656)"/>
<path d="M15.8665 15.8683C19.1074 12.6273 19.1074 7.37271 15.8665 4.13177C12.6255 0.890823 7.37091 0.890824 4.12997 4.13177C0.889023 7.37271 0.889022 12.6273 4.12997 15.8683C7.37091 19.1092 12.6255 19.1092 15.8665 15.8683Z" fill="url(#paint3_linear_9025_168656)"/>
<g style="mix-blend-mode:overlay" opacity="0.5">
<path d="M9.99801 1.7012C14.5813 1.7012 18.297 5.41686 18.297 10.0002C18.297 14.5835 14.5813 18.2991 9.99801 18.2991C5.41471 18.2991 1.69905 14.5839 1.69905 10.0002C1.69905 5.41644 5.41471 1.7012 9.99801 1.7012ZM9.99801 1.63106C8.86816 1.63106 7.77212 1.85235 6.74039 2.28868C5.74373 2.71039 4.84853 3.31373 4.08026 4.08241C3.31158 4.8511 2.70824 5.74588 2.28653 6.74254C1.8502 7.77427 1.62891 8.87031 1.62891 10.0002C1.62891 11.13 1.8502 12.226 2.28653 13.2578C2.70824 14.2544 3.31158 15.1496 4.08026 15.9179C4.84895 16.6866 5.74373 17.2899 6.74039 17.7116C7.77212 18.148 8.86816 18.3693 9.99801 18.3693C11.1279 18.3693 12.2239 18.148 13.2556 17.7116C14.2523 17.2899 15.1471 16.6866 15.9158 15.9179C16.6844 15.1492 17.2878 14.2544 17.7095 13.2578C18.1458 12.226 18.3671 11.13 18.3671 10.0002C18.3671 8.87031 18.1458 7.77427 17.7095 6.74254C17.2878 5.74588 16.6844 4.8511 15.9158 4.08241C15.1471 3.31373 14.2523 2.71039 13.2556 2.28868C12.2239 1.85235 11.1279 1.63106 9.99801 1.63106Z" fill="white"/>
</g>
<path d="M15.7436 15.744C18.9159 12.5717 18.9159 7.42836 15.7436 4.25606C12.5713 1.08377 7.42797 1.08377 4.25567 4.25606C1.08337 7.42836 1.08337 12.5717 4.25567 15.744C7.42797 18.9163 12.5713 18.9163 15.7436 15.744Z" fill="url(#paint4_linear_9025_168656)"/>
<path d="M9.99809 17.9826C14.4067 17.9826 17.9806 14.4088 17.9806 10.0002C17.9806 5.59157 14.4067 2.0177 9.99809 2.0177C5.5895 2.0177 2.01562 5.59157 2.01562 10.0002C2.01562 14.4088 5.5895 17.9826 9.99809 17.9826Z" fill="url(#paint5_linear_9025_168656)"/>
<g style="mix-blend-mode:overlay" opacity="0.4">
<path d="M9.9986 0.365099C11.2992 0.365099 12.561 0.619796 13.7489 1.12209C14.8963 1.60727 15.9268 2.30205 16.8115 3.18681C17.6963 4.07157 18.3911 5.10205 18.8767 6.24944C19.379 7.43733 19.6337 8.69913 19.6337 9.99975C19.6337 11.3004 19.379 12.5622 18.8767 13.7501C18.3915 14.8975 17.6967 15.9279 16.8115 16.8127C15.9268 17.6975 14.8963 18.3922 13.7489 18.8774C12.561 19.3797 11.2992 19.6344 9.9986 19.6344C8.69798 19.6344 7.43618 19.3797 6.24829 18.8774C5.1009 18.3922 4.07042 17.6975 3.18566 16.8127C2.3009 15.9279 1.60612 14.8975 1.12053 13.7501C0.61823 12.5622 0.363532 11.3004 0.363532 9.99975C0.363532 8.69913 0.61823 7.43733 1.12053 6.24944C1.6057 5.10205 2.30048 4.07157 3.18566 3.18681C4.07042 2.30205 5.1009 1.60727 6.24829 1.12209C7.43618 0.619796 8.69798 0.365099 9.9986 0.365099ZM9.9986 0.294952C4.63827 0.294952 0.292969 4.64025 0.292969 10.0002C0.292969 15.3601 4.63827 19.7058 9.9986 19.7058C15.3589 19.7058 19.7042 15.3605 19.7042 10.0002C19.7042 4.63984 15.3589 0.294952 9.9986 0.294952Z" fill="white"/>
</g>
<path d="M17.958 10.6047C17.973 10.4052 17.9806 10.2039 17.9806 10.0006C17.9806 5.59222 14.4069 2.01811 9.99809 2.01811C5.58932 2.01811 2.01562 5.59181 2.01562 10.0002C2.01562 10.2035 2.02356 10.4052 2.03817 10.6043C4.20602 11.677 6.97721 12.3212 9.99809 12.3212C13.019 12.3212 15.7902 11.6774 17.958 10.6043V10.6047Z" fill="url(#paint6_linear_9025_168656)"/>
<path d="M9.16424 14.7363V8.5701L8.10662 9.51039L6.65234 7.91457L9.487 5.29118H11.4373V14.7363H9.16424Z" fill="url(#paint7_linear_9025_168656)"/>
<path d="M11.189 14.4899H9.4082V7.6774L8.00611 9.03231L6.99609 7.92918L9.58064 5.53711H11.1886V14.4895L11.189 14.4899Z" fill="url(#paint8_linear_9025_168656)"/>
<path d="M11.189 14.4899H9.4082V7.6774L8.00611 9.03231L6.99609 7.92918L9.58064 5.53711H11.1886V14.4895L11.189 14.4899Z" fill="url(#paint9_linear_9025_168656)"/>
<path d="M11.0509 14.4899H9.58658V7.85319L8.11936 9.16216L7.15234 8.11415L9.6893 5.71373H11.0509V14.4903V14.4899Z" fill="url(#paint10_linear_9025_168656)"/>
<g opacity="0.4">
<path d="M9.77489 11.5125C10.2058 11.5125 10.6313 11.4991 11.0509 11.4732V5.71289H9.6893L7.15234 8.11331L8.11936 9.16132L9.58658 7.85235V11.5108C9.64921 11.5112 9.71184 11.5121 9.77489 11.5121V11.5125Z" fill="url(#paint11_linear_9025_168656)"/>
</g>
</g>
<defs>
<linearGradient id="paint0_linear_9025_168656" x1="9.99716" y1="-1.60344" x2="9.99716" y2="23.3648" gradientUnits="userSpaceOnUse">
<stop stop-color="#FED44D"/>
<stop offset="1" stop-color="#CA5925"/>
</linearGradient>
<linearGradient id="paint1_linear_9025_168656" x1="9.99938" y1="0.0132604" x2="9.99938" y2="18.7857" gradientUnits="userSpaceOnUse">
<stop offset="0.49" stop-color="#FFC853"/>
<stop offset="0.77" stop-color="#FFC651"/>
<stop offset="0.88" stop-color="#FFC14A"/>
<stop offset="0.95" stop-color="#FFB93E"/>
<stop offset="1" stop-color="#FFB032"/>
</linearGradient>
<linearGradient id="paint2_linear_9025_168656" x1="9.99505" y1="0.125423" x2="9.99505" y2="11.9697" gradientUnits="userSpaceOnUse">
<stop offset="0.02" stop-color="#FFF89B"/>
<stop offset="0.98" stop-color="#FFDE65"/>
</linearGradient>
<linearGradient id="paint3_linear_9025_168656" x1="9.99831" y1="3.17819" x2="9.99831" y2="19.1552" gradientUnits="userSpaceOnUse">
<stop stop-color="#B34A2D"/>
<stop offset="0.21" stop-color="#B44B2D"/>
<stop offset="0.28" stop-color="#B75230"/>
<stop offset="0.33" stop-color="#BE5E34"/>
<stop offset="0.38" stop-color="#C76F3B"/>
<stop offset="0.41" stop-color="#D38543"/>
<stop offset="0.44" stop-color="#E3A04D"/>
<stop offset="0.47" stop-color="#F4C059"/>
<stop offset="0.49" stop-color="#FFD361"/>
<stop offset="0.98" stop-color="#FFEF76"/>
</linearGradient>
<linearGradient id="paint4_linear_9025_168656" x1="9.99972" y1="2.25543" x2="9.99972" y2="17.8943" gradientUnits="userSpaceOnUse">
<stop stop-color="#CE7F37"/>
<stop offset="0.38" stop-color="#CB7B35"/>
<stop offset="0.68" stop-color="#C17130"/>
<stop offset="0.96" stop-color="#B16127"/>
<stop offset="1" stop-color="#AF5E26"/>
</linearGradient>
<linearGradient id="paint5_linear_9025_168656" x1="9.99809" y1="18.3881" x2="9.99809" y2="-0.373114" gradientUnits="userSpaceOnUse">
<stop stop-color="#CE7F37"/>
<stop offset="1" stop-color="#F3C36A"/>
</linearGradient>
<linearGradient id="paint6_linear_9025_168656" x1="0.0122849" y1="12.583" x2="0.0540385" y2="0.474897" gradientUnits="userSpaceOnUse">
<stop stop-color="#CE7F37"/>
<stop offset="1" stop-color="#F3C36A"/>
</linearGradient>
<linearGradient id="paint7_linear_9025_168656" x1="9.04483" y1="-0.632824" x2="9.04483" y2="18.2139" gradientUnits="userSpaceOnUse">
<stop stop-color="#EFC73E"/>
<stop offset="1" stop-color="#BB4C16"/>
</linearGradient>
<linearGradient id="paint8_linear_9025_168656" x1="9.09296" y1="5.40767" x2="9.09296" y2="14.0657" gradientUnits="userSpaceOnUse">
<stop offset="0.49" stop-color="#FFC853"/>
<stop offset="0.77" stop-color="#FFC651"/>
<stop offset="0.88" stop-color="#FFC14A"/>
<stop offset="0.95" stop-color="#FFB93E"/>
<stop offset="1" stop-color="#FFB032"/>
</linearGradient>
<linearGradient id="paint9_linear_9025_168656" x1="9.09296" y1="5.40767" x2="9.09296" y2="14.0657" gradientUnits="userSpaceOnUse">
<stop offset="0.02" stop-color="#FFF89B"/>
<stop offset="0.98" stop-color="#FFDE65"/>
</linearGradient>
<linearGradient id="paint10_linear_9025_168656" x1="9.10182" y1="5.58596" x2="9.10182" y2="14.0741" gradientUnits="userSpaceOnUse">
<stop offset="0.49" stop-color="#FFC853"/>
<stop offset="0.77" stop-color="#FFC651"/>
<stop offset="0.88" stop-color="#FFC14A"/>
<stop offset="0.95" stop-color="#FFB93E"/>
<stop offset="1" stop-color="#FFB032"/>
</linearGradient>
<linearGradient id="paint11_linear_9025_168656" x1="9.10182" y1="4.16258" x2="9.10182" y2="13.7509" gradientUnits="userSpaceOnUse">
<stop offset="0.02" stop-color="#FFF89B"/>
<stop offset="0.98" stop-color="#FFDE65"/>
</linearGradient>
<clipPath id="clip0_9025_168656">
<rect width="20" height="20" fill="white"/>
</clipPath>
</defs>
</svg>
